<svg xmlns="http://www.w3.org/2000/svg" height="502" width="960.0" font-size="16" font-family="sans-serif" stroke-width="2">
<g transform="translate(10.0 0)">
<g fill="hsl(0, 100%, 40%)">
<text y="22">Basic Logging.10_000</text>
<text y="22" x="419.3756254586344" text-anchor="end">426  μs</text>
</g>
<g>
<title>426  μs ±  21 μs</title>
<rect y="28" rx="5" height="22" width="419.3756254586344" fill="hsl(0, 100%, 80%)" stroke="hsl(0, 100%, 55%)" />
<g stroke="hsl(0, 100%, 40%)"><line x1="398.5307895096586" x2="440.2204614076102" y1="39" y2="39" />
<line x1="398.5307895096586" x2="398.5307895096586" y1="33" y2="45" />
<line x1="440.2204614076102" x2="440.2204614076102" y1="33" y2="45" />
</g>
</g>
<g fill="hsl(40, 100%, 40%)">
<text y="77">Basic Logging.100_000</text>
<text y="77" x="417.1904282593213" text-anchor="end">424  μs</text>
</g>
<g>
<title>424  μs ±  27 μs</title>
<rect y="83" rx="5" height="22" width="417.1904282593213" fill="hsl(40, 100%, 80%)" stroke="hsl(40, 100%, 55%)" />
<g stroke="hsl(40, 100%, 40%)"><line x1="390.79875763718104" x2="443.5820988814616" y1="94" y2="94" />
<line x1="390.79875763718104" x2="390.79875763718104" y1="88" y2="100" />
<line x1="443.5820988814616" x2="443.5820988814616" y1="88" y2="100" />
</g>
</g>
<g fill="hsl(80, 100%, 40%)">
<text y="132">Basic Logging.1_000_000</text>
<text y="132" x="418.4492015883834" text-anchor="end">425  μs</text>
</g>
<g>
<title>425  μs ±  25 μs</title>
<rect y="138" rx="5" height="22" width="418.4492015883834" fill="hsl(80, 100%, 80%)" stroke="hsl(80, 100%, 55%)" />
<g stroke="hsl(80, 100%, 40%)"><line x1="393.4358112522588" x2="443.462591924508" y1="149" y2="149" />
<line x1="393.4358112522588" x2="393.4358112522588" y1="143" y2="155" />
<line x1="443.462591924508" x2="443.462591924508" y1="143" y2="155" />
</g>
</g>
<g fill="hsl(120, 100%, 40%)">
<text y="187">Command Logging.10_000</text>
<text y="187" x="611.0278645725224" text-anchor="end">620  μs</text>
</g>
<g>
<title>620  μs ±  47 μs</title>
<rect y="193" rx="5" height="22" width="611.0278645725224" fill="hsl(120, 100%, 80%)" stroke="hsl(120, 100%, 55%)" />
<g stroke="hsl(120, 100%, 40%)"><line x1="564.4388673126491" x2="657.6168618323957" y1="204" y2="204" />
<line x1="564.4388673126491" x2="564.4388673126491" y1="198" y2="210" />
<line x1="657.6168618323957" x2="657.6168618323957" y1="198" y2="210" />
</g>
</g>
<g fill="hsl(160, 100%, 40%)">
<text y="242">Command Logging.100_000</text>
<text y="242" x="611.175883666455" text-anchor="end">621  μs</text>
</g>
<g>
<title>621  μs ±  45 μs</title>
<rect y="248" rx="5" height="22" width="611.175883666455" fill="hsl(160, 100%, 80%)" stroke="hsl(160, 100%, 55%)" />
<g stroke="hsl(160, 100%, 40%)"><line x1="567.2801380994813" x2="655.0716292334287" y1="259" y2="259" />
<line x1="567.2801380994813" x2="567.2801380994813" y1="253" y2="265" />
<line x1="655.0716292334287" x2="655.0716292334287" y1="253" y2="265" />
</g>
</g>
<g fill="hsl(200, 100%, 40%)">
<text y="297">Command Logging.1_000_000</text>
<text y="297" x="628.8953407553806" text-anchor="end">639  μs</text>
</g>
<g>
<title>639  μs ±  55 μs</title>
<rect y="303" rx="5" height="22" width="628.8953407553806" fill="hsl(200, 100%, 80%)" stroke="hsl(200, 100%, 55%)" />
<g stroke="hsl(200, 100%, 40%)"><line x1="574.4949475570048" x2="683.2957339537564" y1="314" y2="314" />
<line x1="574.4949475570048" x2="574.4949475570048" y1="308" y2="320" />
<line x1="683.2957339537564" x2="683.2957339537564" y1="308" y2="320" />
</g>
</g>
<g fill="hsl(240, 100%, 40%)">
<text y="352">File Logging.10_000</text>
<text y="352" x="876.149797947662" text-anchor="end">890  μs</text>
</g>
<g>
<title>890  μs ±  21 μs</title>
<rect y="358" rx="5" height="22" width="876.149797947662" fill="hsl(240, 100%, 80%)" stroke="hsl(240, 100%, 55%)" />
<g stroke="hsl(240, 100%, 40%)"><line x1="855.4522159503092" x2="896.8473799450148" y1="369" y2="369" />
<line x1="855.4522159503092" x2="855.4522159503092" y1="363" y2="375" />
<line x1="896.8473799450148" x2="896.8473799450148" y1="363" y2="375" />
</g>
</g>
<g fill="hsl(280, 100%, 40%)">
<text y="407">File Logging.100_000</text>
<text y="407" x="857.0775554689833" text-anchor="end">870  μs</text>
</g>
<g>
<title>870  μs ±  84 μs</title>
<rect y="413" rx="5" height="22" width="857.0775554689833" fill="hsl(280, 100%, 80%)" stroke="hsl(280, 100%, 55%)" />
<g stroke="hsl(280, 100%, 40%)"><line x1="774.1551109379666" x2="940.0" y1="424" y2="424" />
<line x1="774.1551109379666" x2="774.1551109379666" y1="418" y2="430" />
<line x1="940.0" x2="940.0" y1="418" y2="430" />
</g>
</g>
<g fill="hsl(320, 100%, 40%)">
<text y="462">File Logging.1_000_000</text>
<text y="462" x="846.4962252162268" text-anchor="end">860  μs</text>
</g>
<g>
<title>860  μs ±  42 μs</title>
<rect y="468" rx="5" height="22" width="846.4962252162268" fill="hsl(320, 100%, 80%)" stroke="hsl(320, 100%, 55%)" />
<g stroke="hsl(320, 100%, 40%)"><line x1="804.9675680146017" x2="888.0248824178518" y1="479" y2="479" />
<line x1="804.9675680146017" x2="804.9675680146017" y1="473" y2="485" />
<line x1="888.0248824178518" x2="888.0248824178518" y1="473" y2="485" />
</g>
</g>
</g>
</svg>
