<svg xmlns="http://www.w3.org/2000/svg" height="337" width="960.0" font-size="16" font-family="sans-serif" stroke-width="2">
<g transform="translate(10.0 0)">
<text fill="hsl(0, 100%, 40%)" y="22">Basic Logging.10_000 32.1 ms</text>
<g>
<title>32.1 ms ± 2.7 ms</title>
<rect y="28" rx="5" height="22" width="5.267270461572069" fill="hsl(0, 100%, 80%)" stroke="hsl(0, 100%, 55%)" />
<g stroke="hsl(0, 100%, 40%)"><line x1="4.820438672342582" x2="5.714102250801557" y1="39" y2="39" />
<line x1="4.820438672342582" x2="4.820438672342582" y1="33" y2="45" />
<line x1="5.714102250801557" x2="5.714102250801557" y1="33" y2="45" />
</g>
</g>
<text fill="hsl(60, 100%, 40%)" y="77">Basic Logging.100_000 285  ms</text>
<g>
<title>285  ms ± 3.1 ms</title>
<rect y="83" rx="5" height="22" width="46.822858662345865" fill="hsl(60, 100%, 80%)" stroke="hsl(60, 100%, 55%)" />
<g stroke="hsl(60, 100%, 40%)"><line x1="46.31542639201472" x2="47.33029093267701" y1="94" y2="94" />
<line x1="46.31542639201472" x2="46.31542639201472" y1="88" y2="100" />
<line x1="47.33029093267701" x2="47.33029093267701" y1="88" y2="100" />
</g>
</g>
<text fill="hsl(120, 100%, 40%)" y="132">Command Logging.10_000 8.68 ms</text>
<g>
<title>8.68 ms ± 359 μs</title>
<rect y="138" rx="5" height="22" width="1.4256371066253977" fill="hsl(120, 100%, 80%)" stroke="hsl(120, 100%, 55%)" />
<g stroke="hsl(120, 100%, 40%)"><line x1="1.3666987752767483" x2="1.484575437974047" y1="149" y2="149" />
<line x1="1.3666987752767483" x2="1.3666987752767483" y1="143" y2="155" />
<line x1="1.484575437974047" x2="1.484575437974047" y1="143" y2="155" />
</g>
</g>
<text fill="hsl(180, 100%, 40%)" y="187">Command Logging.100_000 818  ms</text>
<g>
<title>818  ms ±  26 ms</title>
<rect y="193" rx="5" height="22" width="134.42980401418217" fill="hsl(180, 100%, 80%)" stroke="hsl(180, 100%, 55%)" />
<g stroke="hsl(180, 100%, 40%)"><line x1="130.1078138844595" x2="138.75179414390485" y1="204" y2="204" />
<line x1="130.1078138844595" x2="130.1078138844595" y1="198" y2="210" />
<line x1="138.75179414390485" x2="138.75179414390485" y1="198" y2="210" />
</g>
</g>
<text fill="hsl(240, 100%, 40%)" y="242">File Logging.10_000 28.7 ms</text>
<g>
<title>28.7 ms ± 1.8 ms</title>
<rect y="248" rx="5" height="22" width="4.721012287468639" fill="hsl(240, 100%, 80%)" stroke="hsl(240, 100%, 55%)" />
<g stroke="hsl(240, 100%, 40%)"><line x1="4.429204270009752" x2="5.012820304927526" y1="259" y2="259" />
<line x1="4.429204270009752" x2="4.429204270009752" y1="253" y2="265" />
<line x1="5.012820304927526" x2="5.012820304927526" y1="253" y2="265" />
</g>
</g>
<g fill="hsl(300, 100%, 40%)">
<text y="297">File Logging.100_000</text>
<text y="297" x="905.0649548313394" text-anchor="end">5.508 s</text>
</g>
<g>
<title>5.508 s ± 213 ms</title>
<rect y="303" rx="5" height="22" width="905.0649548313394" fill="hsl(300, 100%, 80%)" stroke="hsl(300, 100%, 55%)" />
<g stroke="hsl(300, 100%, 40%)"><line x1="870.1299096626788" x2="940.0" y1="314" y2="314" />
<line x1="870.1299096626788" x2="870.1299096626788" y1="308" y2="320" />
<line x1="940.0" x2="940.0" y1="308" y2="320" />
</g>
</g>
</g>
</svg>
