<svg xmlns="http://www.w3.org/2000/svg" height="337" width="960.0" font-size="16" font-family="sans-serif" stroke-width="2">
<g transform="translate(10.0 0)">
<g fill="hsl(0, 100%, 40%)">
<text y="22">Basic Logging.10_000</text>
<text y="22" x="458.79596386210676" text-anchor="end">450  μs</text>
</g>
<g>
<title>450  μs ±  43 μs</title>
<rect y="28" rx="5" height="22" width="458.79596386210676" fill="hsl(0, 100%, 80%)" stroke="hsl(0, 100%, 55%)" />
<g stroke="hsl(0, 100%, 40%)"><line x1="414.444847445346" x2="503.1470802788675" y1="39" y2="39" />
<line x1="414.444847445346" x2="414.444847445346" y1="33" y2="45" />
<line x1="503.1470802788675" x2="503.1470802788675" y1="33" y2="45" />
</g>
</g>
<g fill="hsl(60, 100%, 40%)">
<text y="77">Basic Logging.100_000</text>
<text y="77" x="457.6671524436814" text-anchor="end">449  μs</text>
</g>
<g>
<title>449  μs ±  41 μs</title>
<rect y="83" rx="5" height="22" width="457.6671524436814" fill="hsl(60, 100%, 80%)" stroke="hsl(60, 100%, 55%)" />
<g stroke="hsl(60, 100%, 40%)"><line x1="415.8815241267437" x2="499.4527807606191" y1="94" y2="94" />
<line x1="415.8815241267437" x2="415.8815241267437" y1="88" y2="100" />
<line x1="499.4527807606191" x2="499.4527807606191" y1="88" y2="100" />
</g>
</g>
<g fill="hsl(120, 100%, 40%)">
<text y="132">Command Logging.10_000</text>
<text y="132" x="603.3155546017716" text-anchor="end">592  μs</text>
</g>
<g>
<title>592  μs ±  48 μs</title>
<rect y="138" rx="5" height="22" width="603.3155546017716" fill="hsl(120, 100%, 80%)" stroke="hsl(120, 100%, 55%)" />
<g stroke="hsl(120, 100%, 40%)"><line x1="554.3920089953065" x2="652.2391002082368" y1="149" y2="149" />
<line x1="554.3920089953065" x2="554.3920089953065" y1="143" y2="155" />
<line x1="652.2391002082368" x2="652.2391002082368" y1="143" y2="155" />
</g>
</g>
<g fill="hsl(180, 100%, 40%)">
<text y="187">Command Logging.100_000</text>
<text y="187" x="602.3704456364931" text-anchor="end">591  μs</text>
</g>
<g>
<title>591  μs ±  47 μs</title>
<rect y="193" rx="5" height="22" width="602.3704456364931" fill="hsl(180, 100%, 80%)" stroke="hsl(180, 100%, 55%)" />
<g stroke="hsl(180, 100%, 40%)"><line x1="554.8952716706596" x2="649.8456196023266" y1="204" y2="204" />
<line x1="554.8952716706596" x2="554.8952716706596" y1="198" y2="210" />
<line x1="649.8456196023266" x2="649.8456196023266" y1="198" y2="210" />
</g>
</g>
<g fill="hsl(240, 100%, 40%)">
<text y="242">File Logging.10_000</text>
<text y="242" x="877.8780319584702" text-anchor="end">861  μs</text>
</g>
<g>
<title>861  μs ±  46 μs</title>
<rect y="248" rx="5" height="22" width="877.8780319584702" fill="hsl(240, 100%, 80%)" stroke="hsl(240, 100%, 55%)" />
<g stroke="hsl(240, 100%, 40%)"><line x1="831.2280778162556" x2="924.5279861006848" y1="259" y2="259" />
<line x1="831.2280778162556" x2="831.2280778162556" y1="253" y2="265" />
<line x1="924.5279861006848" x2="924.5279861006848" y1="253" y2="265" />
</g>
</g>
<g fill="hsl(300, 100%, 40%)">
<text y="297">File Logging.100_000</text>
<text y="297" x="880.4353898890927" text-anchor="end">863  μs</text>
</g>
<g>
<title>863  μs ±  58 μs</title>
<rect y="303" rx="5" height="22" width="880.4353898890927" fill="hsl(300, 100%, 80%)" stroke="hsl(300, 100%, 55%)" />
<g stroke="hsl(300, 100%, 40%)"><line x1="820.8707797781854" x2="940.0" y1="314" y2="314" />
<line x1="820.8707797781854" x2="820.8707797781854" y1="308" y2="320" />
<line x1="940.0" x2="940.0" y1="308" y2="320" />
</g>
</g>
</g>
</svg>
