<svg xmlns="http://www.w3.org/2000/svg" height="337" width="960.0" font-size="16" font-family="sans-serif" stroke-width="2">
<g transform="translate(10.0 0)">
<g fill="hsl(0, 100%, 40%)">
<text y="22">Basic Logging.10_000</text>
<text y="22" x="348.2402415991521" text-anchor="end">476  μs</text>
</g>
<g>
<title>476  μs ±  24 μs</title>
<rect y="28" rx="5" height="22" width="348.2402415991521" fill="hsl(0, 100%, 80%)" stroke="hsl(0, 100%, 55%)" />
<g stroke="hsl(0, 100%, 40%)"><line x1="330.33869035028505" x2="366.1417928480192" y1="39" y2="39" />
<line x1="330.33869035028505" x2="330.33869035028505" y1="33" y2="45" />
<line x1="366.1417928480192" x2="366.1417928480192" y1="33" y2="45" />
</g>
</g>
<g fill="hsl(60, 100%, 40%)">
<text y="77">Basic Logging.100_000</text>
<text y="77" x="339.0337580514649" text-anchor="end">464  μs</text>
</g>
<g>
<title>464  μs ±  39 μs</title>
<rect y="83" rx="5" height="22" width="339.0337580514649" fill="hsl(60, 100%, 80%)" stroke="hsl(60, 100%, 55%)" />
<g stroke="hsl(60, 100%, 40%)"><line x1="310.5669245897278" x2="367.5005915132019" y1="94" y2="94" />
<line x1="310.5669245897278" x2="310.5669245897278" y1="88" y2="100" />
<line x1="367.5005915132019" x2="367.5005915132019" y1="88" y2="100" />
</g>
</g>
<g fill="hsl(120, 100%, 40%)">
<text y="132">Command Logging.10_000</text>
<text y="132" x="625.1650644916942" text-anchor="end">855  μs</text>
</g>
<g>
<title>855  μs ±  45 μs</title>
<rect y="138" rx="5" height="22" width="625.1650644916942" fill="hsl(120, 100%, 80%)" stroke="hsl(120, 100%, 55%)" />
<g stroke="hsl(120, 100%, 40%)"><line x1="592.0588822283898" x2="658.2712467549986" y1="149" y2="149" />
<line x1="592.0588822283898" x2="592.0588822283898" y1="143" y2="155" />
<line x1="658.2712467549986" x2="658.2712467549986" y1="143" y2="155" />
</g>
</g>
<g fill="hsl(180, 100%, 40%)">
<text y="187">Command Logging.100_000</text>
<text y="187" x="638.6943482889207" text-anchor="end">873  μs</text>
</g>
<g>
<title>873  μs ±  60 μs</title>
<rect y="193" rx="5" height="22" width="638.6943482889207" fill="hsl(180, 100%, 80%)" stroke="hsl(180, 100%, 55%)" />
<g stroke="hsl(180, 100%, 40%)"><line x1="594.9518143404604" x2="682.4368822373809" y1="204" y2="204" />
<line x1="594.9518143404604" x2="594.9518143404604" y1="198" y2="210" />
<line x1="682.4368822373809" x2="682.4368822373809" y1="198" y2="210" />
</g>
</g>
<g fill="hsl(240, 100%, 40%)">
<text y="242">File Logging.10_000</text>
<text y="242" x="830.2168840763388" text-anchor="end">1.14 ms</text>
</g>
<g>
<title>1.14 ms ± 112 μs</title>
<rect y="248" rx="5" height="22" width="830.2168840763388" fill="hsl(240, 100%, 80%)" stroke="hsl(240, 100%, 55%)" />
<g stroke="hsl(240, 100%, 40%)"><line x1="748.1574548506369" x2="912.2763133020408" y1="259" y2="259" />
<line x1="748.1574548506369" x2="748.1574548506369" y1="253" y2="265" />
<line x1="912.2763133020408" x2="912.2763133020408" y1="253" y2="265" />
</g>
</g>
<g fill="hsl(300, 100%, 40%)">
<text y="297">File Logging.100_000</text>
<text y="297" x="889.1363274544759" text-anchor="end">1.22 ms</text>
</g>
<g>
<title>1.22 ms ±  70 μs</title>
<rect y="303" rx="5" height="22" width="889.1363274544759" fill="hsl(300, 100%, 80%)" stroke="hsl(300, 100%, 55%)" />
<g stroke="hsl(300, 100%, 40%)"><line x1="838.2726549089518" x2="940.0" y1="314" y2="314" />
<line x1="838.2726549089518" x2="838.2726549089518" y1="308" y2="320" />
<line x1="940.0" x2="940.0" y1="308" y2="320" />
</g>
</g>
</g>
</svg>
