<svg xmlns="http://www.w3.org/2000/svg" height="337" width="960.0" font-size="16" font-family="sans-serif" stroke-width="2">
<g transform="translate(10.0 0)">
<g fill="hsl(0, 100%, 40%)">
<text y="22">Basic Logging.10_000</text>
<text y="22" x="431.06292884645137" text-anchor="end">443  μs</text>
</g>
<g>
<title>443  μs ±  43 μs</title>
<rect y="28" rx="5" height="22" width="431.06292884645137" fill="hsl(0, 100%, 80%)" stroke="hsl(0, 100%, 55%)" />
<g stroke="hsl(0, 100%, 40%)"><line x1="389.2637569528602" x2="472.86210074004254" y1="39" y2="39" />
<line x1="389.2637569528602" x2="389.2637569528602" y1="33" y2="45" />
<line x1="472.86210074004254" x2="472.86210074004254" y1="33" y2="45" />
</g>
</g>
<g fill="hsl(60, 100%, 40%)">
<text y="77">Basic Logging.100_000</text>
<text y="77" x="430.72823833697805" text-anchor="end">443  μs</text>
</g>
<g>
<title>443  μs ±  43 μs</title>
<rect y="83" rx="5" height="22" width="430.72823833697805" fill="hsl(60, 100%, 80%)" stroke="hsl(60, 100%, 55%)" />
<g stroke="hsl(60, 100%, 40%)"><line x1="389.3500112761111" x2="472.106465397845" y1="94" y2="94" />
<line x1="389.3500112761111" x2="389.3500112761111" y1="88" y2="100" />
<line x1="472.106465397845" x2="472.106465397845" y1="88" y2="100" />
</g>
</g>
<g fill="hsl(120, 100%, 40%)">
<text y="132">Command Logging.10_000</text>
<text y="132" x="621.3144758253316" text-anchor="end">639  μs</text>
</g>
<g>
<title>639  μs ±  53 μs</title>
<rect y="138" rx="5" height="22" width="621.3144758253316" fill="hsl(120, 100%, 80%)" stroke="hsl(120, 100%, 55%)" />
<g stroke="hsl(120, 100%, 40%)"><line x1="569.6436984826579" x2="672.9852531680052" y1="149" y2="149" />
<line x1="569.6436984826579" x2="569.6436984826579" y1="143" y2="155" />
<line x1="672.9852531680052" x2="672.9852531680052" y1="143" y2="155" />
</g>
</g>
<g fill="hsl(180, 100%, 40%)">
<text y="187">Command Logging.100_000</text>
<text y="187" x="607.6510030895824" text-anchor="end">625  μs</text>
</g>
<g>
<title>625  μs ±  34 μs</title>
<rect y="193" rx="5" height="22" width="607.6510030895824" fill="hsl(180, 100%, 80%)" stroke="hsl(180, 100%, 55%)" />
<g stroke="hsl(180, 100%, 40%)"><line x1="574.9443170142563" x2="640.3576891649086" y1="204" y2="204" />
<line x1="574.9443170142563" x2="574.9443170142563" y1="198" y2="210" />
<line x1="640.3576891649086" x2="640.3576891649086" y1="198" y2="210" />
</g>
</g>
<g fill="hsl(240, 100%, 40%)">
<text y="242">File Logging.10_000</text>
<text y="242" x="857.2865047530086" text-anchor="end">881  μs</text>
</g>
<g>
<title>881  μs ±  85 μs</title>
<rect y="248" rx="5" height="22" width="857.2865047530086" fill="hsl(240, 100%, 80%)" stroke="hsl(240, 100%, 55%)" />
<g stroke="hsl(240, 100%, 40%)"><line x1="774.5730095060171" x2="940.0" y1="259" y2="259" />
<line x1="774.5730095060171" x2="774.5730095060171" y1="253" y2="265" />
<line x1="940.0" x2="940.0" y1="253" y2="265" />
</g>
</g>
<g fill="hsl(300, 100%, 40%)">
<text y="297">File Logging.100_000</text>
<text y="297" x="859.3457690847985" text-anchor="end">883  μs</text>
</g>
<g>
<title>883  μs ±  61 μs</title>
<rect y="303" rx="5" height="22" width="859.3457690847985" fill="hsl(300, 100%, 80%)" stroke="hsl(300, 100%, 55%)" />
<g stroke="hsl(300, 100%, 40%)"><line x1="799.8512372722361" x2="918.8403008973609" y1="314" y2="314" />
<line x1="799.8512372722361" x2="799.8512372722361" y1="308" y2="320" />
<line x1="918.8403008973609" x2="918.8403008973609" y1="308" y2="320" />
</g>
</g>
</g>
</svg>
