<svg xmlns="http://www.w3.org/2000/svg" height="337" width="960.0" font-size="16" font-family="sans-serif" stroke-width="2">
<g transform="translate(10.0 0)">
<text fill="hsl(0, 100%, 40%)" y="22">Basic Logging.10_000 13.3 ms</text>
<g>
<title>13.3 ms ± 1.1 ms</title>
<rect y="28" rx="5" height="22" width="5.259429839227058" fill="hsl(0, 100%, 80%)" stroke="hsl(0, 100%, 55%)" />
<g stroke="hsl(0, 100%, 40%)"><line x1="4.812506174880693" x2="5.706353503573424" y1="39" y2="39" />
<line x1="4.812506174880693" x2="4.812506174880693" y1="33" y2="45" />
<line x1="5.706353503573424" x2="5.706353503573424" y1="33" y2="45" />
</g>
</g>
<text fill="hsl(60, 100%, 40%)" y="77">Basic Logging.100_000 128  ms</text>
<g>
<title>128  ms ± 4.3 ms</title>
<rect y="83" rx="5" height="22" width="50.45445915724664" fill="hsl(60, 100%, 80%)" stroke="hsl(60, 100%, 55%)" />
<g stroke="hsl(60, 100%, 40%)"><line x1="48.77492577100295" x2="52.13399254349033" y1="94" y2="94" />
<line x1="48.77492577100295" x2="48.77492577100295" y1="88" y2="100" />
<line x1="52.13399254349033" x2="52.13399254349033" y1="88" y2="100" />
</g>
</g>
<text fill="hsl(120, 100%, 40%)" y="132">Command Logging.10_000 2.21 ms</text>
<g>
<title>2.21 ms ±  88 μs</title>
<rect y="138" rx="5" height="22" width="0.8709247778654131" fill="hsl(120, 100%, 80%)" stroke="hsl(120, 100%, 55%)" />
<g stroke="hsl(120, 100%, 40%)"><line x1="0.8359802470915035" x2="0.9058693086393227" y1="149" y2="149" />
<line x1="0.8359802470915035" x2="0.8359802470915035" y1="143" y2="155" />
<line x1="0.9058693086393227" x2="0.9058693086393227" y1="143" y2="155" />
</g>
</g>
<g fill="hsl(180, 100%, 40%)">
<text y="187">Command Logging.100_000</text>
<text y="187" x="249.83429531672172" text-anchor="end">633  ms</text>
</g>
<g>
<title>633  ms ±  54 ms</title>
<rect y="193" rx="5" height="22" width="249.83429531672172" fill="hsl(180, 100%, 80%)" stroke="hsl(180, 100%, 55%)" />
<g stroke="hsl(180, 100%, 40%)"><line x1="228.51443914253628" x2="271.15415149090717" y1="204" y2="204" />
<line x1="228.51443914253628" x2="228.51443914253628" y1="198" y2="210" />
<line x1="271.15415149090717" x2="271.15415149090717" y1="198" y2="210" />
</g>
</g>
<text fill="hsl(240, 100%, 40%)" y="242">File Logging.10_000 11.1 ms</text>
<g>
<title>11.1 ms ± 1.0 ms</title>
<rect y="248" rx="5" height="22" width="4.38648900419352" fill="hsl(240, 100%, 80%)" stroke="hsl(240, 100%, 55%)" />
<g stroke="hsl(240, 100%, 40%)"><line x1="3.987981483103979" x2="4.784996525283061" y1="259" y2="259" />
<line x1="3.987981483103979" x2="3.987981483103979" y1="253" y2="265" />
<line x1="4.784996525283061" x2="4.784996525283061" y1="253" y2="265" />
</g>
</g>
<g fill="hsl(300, 100%, 40%)">
<text y="297">File Logging.100_000</text>
<text y="297" x="937.8884171436398" text-anchor="end">2.375 s</text>
</g>
<g>
<title>2.375 s ± 5.3 ms</title>
<rect y="303" rx="5" height="22" width="937.8884171436398" fill="hsl(300, 100%, 80%)" stroke="hsl(300, 100%, 55%)" />
<g stroke="hsl(300, 100%, 40%)"><line x1="935.7768342872796" x2="940.0" y1="314" y2="314" />
<line x1="935.7768342872796" x2="935.7768342872796" y1="308" y2="320" />
<line x1="940.0" x2="940.0" y1="308" y2="320" />
</g>
</g>
</g>
</svg>
