<svg xmlns="http://www.w3.org/2000/svg" height="502" width="960.0" font-size="16" font-family="sans-serif" stroke-width="2">
<g transform="translate(10.0 0)">
<g fill="hsl(0, 100%, 40%)">
<text y="22">Basic Logging.10_000</text>
<text y="22" x="465.36268075576487" text-anchor="end">852  μs</text>
</g>
<g>
<title>852  μs ±  59 μs</title>
<rect y="28" rx="5" height="22" width="465.36268075576487" fill="hsl(0, 100%, 80%)" stroke="hsl(0, 100%, 55%)" />
<g stroke="hsl(0, 100%, 40%)"><line x1="433.0696815695101" x2="497.6556799420196" y1="39" y2="39" />
<line x1="433.0696815695101" x2="433.0696815695101" y1="33" y2="45" />
<line x1="497.6556799420196" x2="497.6556799420196" y1="33" y2="45" />
</g>
</g>
<g fill="hsl(40, 100%, 40%)">
<text y="77">Basic Logging.100_000</text>
<text y="77" x="465.8107298530119" text-anchor="end">853  μs</text>
</g>
<g>
<title>853  μs ±  45 μs</title>
<rect y="83" rx="5" height="22" width="465.8107298530119" fill="hsl(40, 100%, 80%)" stroke="hsl(40, 100%, 55%)" />
<g stroke="hsl(40, 100%, 40%)"><line x1="441.35215352416236" x2="490.2693061818614" y1="94" y2="94" />
<line x1="441.35215352416236" x2="441.35215352416236" y1="88" y2="100" />
<line x1="490.2693061818614" x2="490.2693061818614" y1="88" y2="100" />
</g>
</g>
<g fill="hsl(80, 100%, 40%)">
<text y="132">Basic Logging.1_000_000</text>
<text y="132" x="433.4622641687972" text-anchor="end">794  μs</text>
</g>
<g>
<title>794  μs ±  60 μs</title>
<rect y="138" rx="5" height="22" width="433.4622641687972" fill="hsl(80, 100%, 80%)" stroke="hsl(80, 100%, 55%)" />
<g stroke="hsl(80, 100%, 40%)"><line x1="400.60411527216877" x2="466.32041306542567" y1="149" y2="149" />
<line x1="400.60411527216877" x2="400.60411527216877" y1="143" y2="155" />
<line x1="466.32041306542567" x2="466.32041306542567" y1="143" y2="155" />
</g>
</g>
<g fill="hsl(120, 100%, 40%)">
<text y="187">Command Logging.10_000</text>
<text y="187" x="603.8995460660627" text-anchor="end">1.11 ms</text>
</g>
<g>
<title>1.11 ms ±  88 μs</title>
<rect y="193" rx="5" height="22" width="603.8995460660627" fill="hsl(120, 100%, 80%)" stroke="hsl(120, 100%, 55%)" />
<g stroke="hsl(120, 100%, 40%)"><line x1="555.7090820364995" x2="652.090010095626" y1="204" y2="204" />
<line x1="555.7090820364995" x2="555.7090820364995" y1="198" y2="210" />
<line x1="652.090010095626" x2="652.090010095626" y1="198" y2="210" />
</g>
</g>
<g fill="hsl(160, 100%, 40%)">
<text y="242">Command Logging.100_000</text>
<text y="242" x="596.7852045338043" text-anchor="end">1.09 ms</text>
</g>
<g>
<title>1.09 ms ±  59 μs</title>
<rect y="248" rx="5" height="22" width="596.7852045338043" fill="hsl(160, 100%, 80%)" stroke="hsl(160, 100%, 55%)" />
<g stroke="hsl(160, 100%, 40%)"><line x1="564.5967806509184" x2="628.9736284166902" y1="259" y2="259" />
<line x1="564.5967806509184" x2="564.5967806509184" y1="253" y2="265" />
<line x1="628.9736284166902" x2="628.9736284166902" y1="253" y2="265" />
</g>
</g>
<g fill="hsl(200, 100%, 40%)">
<text y="297">Command Logging.1_000_000</text>
<text y="297" x="579.4447554044874" text-anchor="end">1.06 ms</text>
</g>
<g>
<title>1.06 ms ±  90 μs</title>
<rect y="303" rx="5" height="22" width="579.4447554044874" fill="hsl(200, 100%, 80%)" stroke="hsl(200, 100%, 55%)" />
<g stroke="hsl(200, 100%, 40%)"><line x1="530.0955593043967" x2="628.7939515045781" y1="314" y2="314" />
<line x1="530.0955593043967" x2="530.0955593043967" y1="308" y2="320" />
<line x1="628.7939515045781" x2="628.7939515045781" y1="308" y2="320" />
</g>
</g>
<g fill="hsl(240, 100%, 40%)">
<text y="352">File Logging.10_000</text>
<text y="352" x="739.1131651894678" text-anchor="end">1.35 ms</text>
</g>
<g>
<title>1.35 ms ±  85 μs</title>
<rect y="358" rx="5" height="22" width="739.1131651894678" fill="hsl(240, 100%, 80%)" stroke="hsl(240, 100%, 55%)" />
<g stroke="hsl(240, 100%, 40%)"><line x1="692.5027920352219" x2="785.7235383437138" y1="369" y2="369" />
<line x1="692.5027920352219" x2="692.5027920352219" y1="363" y2="375" />
<line x1="785.7235383437138" x2="785.7235383437138" y1="363" y2="375" />
</g>
</g>
<g fill="hsl(280, 100%, 40%)">
<text y="407">File Logging.100_000</text>
<text y="407" x="889.0871944140017" text-anchor="end">1.63 ms</text>
</g>
<g>
<title>1.63 ms ±  92 μs</title>
<rect y="413" rx="5" height="22" width="889.0871944140017" fill="hsl(280, 100%, 80%)" stroke="hsl(280, 100%, 55%)" />
<g stroke="hsl(280, 100%, 40%)"><line x1="838.7714335088685" x2="939.4029553191349" y1="424" y2="424" />
<line x1="838.7714335088685" x2="838.7714335088685" y1="418" y2="430" />
<line x1="939.4029553191349" x2="939.4029553191349" y1="418" y2="430" />
</g>
</g>
<g fill="hsl(320, 100%, 40%)">
<text y="462">File Logging.1_000_000</text>
<text y="462" x="885.3090291077908" text-anchor="end">1.62 ms</text>
</g>
<g>
<title>1.62 ms ± 100 μs</title>
<rect y="468" rx="5" height="22" width="885.3090291077908" fill="hsl(320, 100%, 80%)" stroke="hsl(320, 100%, 55%)" />
<g stroke="hsl(320, 100%, 40%)"><line x1="830.6180582155816" x2="940.0" y1="479" y2="479" />
<line x1="830.6180582155816" x2="830.6180582155816" y1="473" y2="485" />
<line x1="940.0" x2="940.0" y1="473" y2="485" />
</g>
</g>
</g>
</svg>
