<svg xmlns="http://www.w3.org/2000/svg" height="502" width="960.0" font-size="16" font-family="sans-serif" stroke-width="2">
<g transform="translate(10.0 0)">
<g fill="hsl(0, 100%, 40%)">
<text y="22">Basic Logging.10_000</text>
<text y="22" x="404.64487077042673" text-anchor="end">421  μs</text>
</g>
<g>
<title>421  μs ±  29 μs</title>
<rect y="28" rx="5" height="22" width="404.64487077042673" fill="hsl(0, 100%, 80%)" stroke="hsl(0, 100%, 55%)" />
<g stroke="hsl(0, 100%, 40%)"><line x1="376.79531804604414" x2="432.4944234948093" y1="39" y2="39" />
<line x1="376.79531804604414" x2="376.79531804604414" y1="33" y2="45" />
<line x1="432.4944234948093" x2="432.4944234948093" y1="33" y2="45" />
</g>
</g>
<g fill="hsl(40, 100%, 40%)">
<text y="77">Basic Logging.100_000</text>
<text y="77" x="406.9457702151483" text-anchor="end">424  μs</text>
</g>
<g>
<title>424  μs ±  30 μs</title>
<rect y="83" rx="5" height="22" width="406.9457702151483" fill="hsl(40, 100%, 80%)" stroke="hsl(40, 100%, 55%)" />
<g stroke="hsl(40, 100%, 40%)"><line x1="378.3436725409377" x2="435.5478678893589" y1="94" y2="94" />
<line x1="378.3436725409377" x2="378.3436725409377" y1="88" y2="100" />
<line x1="435.5478678893589" x2="435.5478678893589" y1="88" y2="100" />
</g>
</g>
<g fill="hsl(80, 100%, 40%)">
<text y="132">Basic Logging.1_000_000</text>
<text y="132" x="398.6495924168143" text-anchor="end">415  μs</text>
</g>
<g>
<title>415  μs ±  34 μs</title>
<rect y="138" rx="5" height="22" width="398.6495924168143" fill="hsl(80, 100%, 80%)" stroke="hsl(80, 100%, 55%)" />
<g stroke="hsl(80, 100%, 40%)"><line x1="365.5959969455731" x2="431.7031878880555" y1="149" y2="149" />
<line x1="365.5959969455731" x2="365.5959969455731" y1="143" y2="155" />
<line x1="431.7031878880555" x2="431.7031878880555" y1="143" y2="155" />
</g>
</g>
<g fill="hsl(120, 100%, 40%)">
<text y="187">Command Logging.10_000</text>
<text y="187" x="588.2801531012134" text-anchor="end">612  μs</text>
</g>
<g>
<title>612  μs ±  40 μs</title>
<rect y="193" rx="5" height="22" width="588.2801531012134" fill="hsl(120, 100%, 80%)" stroke="hsl(120, 100%, 55%)" />
<g stroke="hsl(120, 100%, 40%)"><line x1="549.388790494172" x2="627.1715157082548" y1="204" y2="204" />
<line x1="549.388790494172" x2="549.388790494172" y1="198" y2="210" />
<line x1="627.1715157082548" x2="627.1715157082548" y1="198" y2="210" />
</g>
</g>
<g fill="hsl(160, 100%, 40%)">
<text y="242">Command Logging.100_000</text>
<text y="242" x="570.7353452231282" text-anchor="end">594  μs</text>
</g>
<g>
<title>594  μs ±  28 μs</title>
<rect y="248" rx="5" height="22" width="570.7353452231282" fill="hsl(160, 100%, 80%)" stroke="hsl(160, 100%, 55%)" />
<g stroke="hsl(160, 100%, 40%)"><line x1="543.7611891468589" x2="597.7095012993975" y1="259" y2="259" />
<line x1="543.7611891468589" x2="543.7611891468589" y1="253" y2="265" />
<line x1="597.7095012993975" x2="597.7095012993975" y1="253" y2="265" />
</g>
</g>
<g fill="hsl(200, 100%, 40%)">
<text y="297">Command Logging.1_000_000</text>
<text y="297" x="584.191583523027" text-anchor="end">608  μs</text>
</g>
<g>
<title>608  μs ±  48 μs</title>
<rect y="303" rx="5" height="22" width="584.191583523027" fill="hsl(200, 100%, 80%)" stroke="hsl(200, 100%, 55%)" />
<g stroke="hsl(200, 100%, 40%)"><line x1="538.4326557311712" x2="629.9505113148829" y1="314" y2="314" />
<line x1="538.4326557311712" x2="538.4326557311712" y1="308" y2="320" />
<line x1="629.9505113148829" x2="629.9505113148829" y1="308" y2="320" />
</g>
</g>
<g fill="hsl(240, 100%, 40%)">
<text y="352">File Logging.10_000</text>
<text y="352" x="822.6824827017546" text-anchor="end">856  μs</text>
</g>
<g>
<title>856  μs ±  23 μs</title>
<rect y="358" rx="5" height="22" width="822.6824827017546" fill="hsl(240, 100%, 80%)" stroke="hsl(240, 100%, 55%)" />
<g stroke="hsl(240, 100%, 40%)"><line x1="800.8291258086335" x2="844.5358395948756" y1="369" y2="369" />
<line x1="800.8291258086335" x2="800.8291258086335" y1="363" y2="375" />
<line x1="844.5358395948756" x2="844.5358395948756" y1="363" y2="375" />
</g>
</g>
<g fill="hsl(280, 100%, 40%)">
<text y="407">File Logging.100_000</text>
<text y="407" x="866.9540821926742" text-anchor="end">902  μs</text>
</g>
<g>
<title>902  μs ±  76 μs</title>
<rect y="413" rx="5" height="22" width="866.9540821926742" fill="hsl(280, 100%, 80%)" stroke="hsl(280, 100%, 55%)" />
<g stroke="hsl(280, 100%, 40%)"><line x1="793.9081643853483" x2="940.0" y1="424" y2="424" />
<line x1="793.9081643853483" x2="793.9081643853483" y1="418" y2="430" />
<line x1="940.0" x2="940.0" y1="418" y2="430" />
</g>
</g>
<g fill="hsl(320, 100%, 40%)">
<text y="462">File Logging.1_000_000</text>
<text y="462" x="853.9249090831978" text-anchor="end">889  μs</text>
</g>
<g>
<title>889  μs ±  55 μs</title>
<rect y="468" rx="5" height="22" width="853.9249090831978" fill="hsl(320, 100%, 80%)" stroke="hsl(320, 100%, 55%)" />
<g stroke="hsl(320, 100%, 40%)"><line x1="801.512565957644" x2="906.3372522087516" y1="479" y2="479" />
<line x1="801.512565957644" x2="801.512565957644" y1="473" y2="485" />
<line x1="906.3372522087516" x2="906.3372522087516" y1="473" y2="485" />
</g>
</g>
</g>
</svg>
