<svg xmlns="http://www.w3.org/2000/svg" height="502" width="960.0" font-size="16" font-family="sans-serif" stroke-width="2">
<g transform="translate(10.0 0)">
<text fill="hsl(0, 100%, 40%)" y="22">Basic Logging.10_000 16.6 ms</text>
<g>
<title>16.6 ms ± 1.4 ms</title>
<rect y="28" rx="5" height="22" width="0.4340086372557784" fill="hsl(0, 100%, 80%)" stroke="hsl(0, 100%, 55%)" />
<g stroke="hsl(0, 100%, 40%)"><line x1="0.39650537397800006" x2="0.4715119005335567" y1="39" y2="39" />
<line x1="0.39650537397800006" x2="0.39650537397800006" y1="33" y2="45" />
<line x1="0.4715119005335567" x2="0.4715119005335567" y1="33" y2="45" />
</g>
</g>
<text fill="hsl(40, 100%, 40%)" y="77">Basic Logging.100_000 161  ms</text>
<g>
<title>161  ms ± 2.1 ms</title>
<rect y="83" rx="5" height="22" width="4.201299445640343" fill="hsl(40, 100%, 80%)" stroke="hsl(40, 100%, 55%)" />
<g stroke="hsl(40, 100%, 40%)"><line x1="4.1466577456009555" x2="4.2559411456797305" y1="94" y2="94" />
<line x1="4.1466577456009555" x2="4.1466577456009555" y1="88" y2="100" />
<line x1="4.2559411456797305" x2="4.2559411456797305" y1="88" y2="100" />
</g>
</g>
<text fill="hsl(80, 100%, 40%)" y="132">Basic Logging.1_000_000 1.617 s</text>
<g>
<title>1.617 s ±  63 ms</title>
<rect y="138" rx="5" height="22" width="42.21375737900508" fill="hsl(80, 100%, 80%)" stroke="hsl(80, 100%, 55%)" />
<g stroke="hsl(80, 100%, 40%)"><line x1="40.56111512922578" x2="43.86639962878438" y1="149" y2="149" />
<line x1="40.56111512922578" x2="40.56111512922578" y1="143" y2="155" />
<line x1="43.86639962878438" x2="43.86639962878438" y1="143" y2="155" />
</g>
</g>
<text fill="hsl(120, 100%, 40%)" y="187">Command Logging.10_000 1.28 ms</text>
<g>
<title>1.28 ms ±  93 μs</title>
<rect y="193" rx="5" height="22" width="0.03339100019877141" fill="hsl(120, 100%, 80%)" stroke="hsl(120, 100%, 55%)" />
<g stroke="hsl(120, 100%, 40%)"><line x1="0.030961576628461097" x2="0.03582042376908173" y1="204" y2="204" />
<line x1="0.030961576628461097" x2="0.030961576628461097" y1="198" y2="210" />
<line x1="0.03582042376908173" x2="0.03582042376908173" y1="198" y2="210" />
</g>
</g>
<text fill="hsl(160, 100%, 40%)" y="242">Command Logging.100_000 314  ms</text>
<g>
<title>314  ms ± 8.0 ms</title>
<rect y="248" rx="5" height="22" width="8.20306876057301" fill="hsl(160, 100%, 80%)" stroke="hsl(160, 100%, 55%)" />
<g stroke="hsl(160, 100%, 40%)"><line x1="7.994235543052494" x2="8.411901978093526" y1="259" y2="259" />
<line x1="7.994235543052494" x2="7.994235543052494" y1="253" y2="265" />
<line x1="8.411901978093526" x2="8.411901978093526" y1="253" y2="265" />
</g>
</g>
<text fill="hsl(200, 100%, 40%)" y="297">Command Logging.1_000_000 3.937 s</text>
<g>
<title>3.937 s ± 124 ms</title>
<rect y="303" rx="5" height="22" width="102.7842730970613" fill="hsl(200, 100%, 80%)" stroke="hsl(200, 100%, 55%)" />
<g stroke="hsl(200, 100%, 40%)"><line x1="99.53808299739983" x2="106.03046319672278" y1="314" y2="314" />
<line x1="99.53808299739983" x2="99.53808299739983" y1="308" y2="320" />
<line x1="106.03046319672278" x2="106.03046319672278" y1="308" y2="320" />
</g>
</g>
<text fill="hsl(240, 100%, 40%)" y="352">File Logging.10_000 10.7 ms</text>
<g>
<title>10.7 ms ± 833 μs</title>
<rect y="358" rx="5" height="22" width="0.28040892716526333" fill="hsl(240, 100%, 80%)" stroke="hsl(240, 100%, 55%)" />
<g stroke="hsl(240, 100%, 40%)"><line x1="0.2586588589484287" x2="0.30215899538209795" y1="369" y2="369" />
<line x1="0.2586588589484287" x2="0.2586588589484287" y1="363" y2="375" />
<line x1="0.30215899538209795" x2="0.30215899538209795" y1="363" y2="375" />
</g>
</g>
<text fill="hsl(280, 100%, 40%)" y="407">File Logging.100_000 2.649 s</text>
<g>
<title>2.649 s ± 214 ms</title>
<rect y="413" rx="5" height="22" width="69.1613603632127" fill="hsl(280, 100%, 80%)" stroke="hsl(280, 100%, 55%)" />
<g stroke="hsl(280, 100%, 40%)"><line x1="63.57889371738746" x2="74.74382700903793" y1="424" y2="424" />
<line x1="63.57889371738746" x2="63.57889371738746" y1="418" y2="430" />
<line x1="74.74382700903793" x2="74.74382700903793" y1="418" y2="430" />
</g>
</g>
<g fill="hsl(320, 100%, 40%)">
<text y="462">File Logging.1_000_000</text>
<text y="462" x="933.6773495949525" text-anchor="end">35.761 s</text>
</g>
<g>
<title>35.761 s ± 242 ms</title>
<rect y="468" rx="5" height="22" width="933.6773495949525" fill="hsl(320, 100%, 80%)" stroke="hsl(320, 100%, 55%)" />
<g stroke="hsl(320, 100%, 40%)"><line x1="927.354699189905" x2="940.0" y1="479" y2="479" />
<line x1="927.354699189905" x2="927.354699189905" y1="473" y2="485" />
<line x1="940.0" x2="940.0" y1="473" y2="485" />
</g>
</g>
</g>
</svg>
