<svg xmlns="http://www.w3.org/2000/svg" height="337" width="960.0" font-size="16" font-family="sans-serif" stroke-width="2">
<g transform="translate(10.0 0)">
<g fill="hsl(0, 100%, 40%)">
<text y="22">Basic Logging.10_000</text>
<text y="22" x="448.5975877181499" text-anchor="end">449  μs</text>
</g>
<g>
<title>449  μs ±  35 μs</title>
<rect y="28" rx="5" height="22" width="448.5975877181499" fill="hsl(0, 100%, 80%)" stroke="hsl(0, 100%, 55%)" />
<g stroke="hsl(0, 100%, 40%)"><line x1="414.08583609400256" x2="483.10933934229723" y1="39" y2="39" />
<line x1="414.08583609400256" x2="414.08583609400256" y1="33" y2="45" />
<line x1="483.10933934229723" x2="483.10933934229723" y1="33" y2="45" />
</g>
</g>
<g fill="hsl(60, 100%, 40%)">
<text y="77">Basic Logging.100_000</text>
<text y="77" x="434.64881477401724" text-anchor="end">435  μs</text>
</g>
<g>
<title>435  μs ±  35 μs</title>
<rect y="83" rx="5" height="22" width="434.64881477401724" fill="hsl(60, 100%, 80%)" stroke="hsl(60, 100%, 55%)" />
<g stroke="hsl(60, 100%, 40%)"><line x1="399.47027360229237" x2="469.8273559457421" y1="94" y2="94" />
<line x1="399.47027360229237" x2="399.47027360229237" y1="88" y2="100" />
<line x1="469.8273559457421" x2="469.8273559457421" y1="88" y2="100" />
</g>
</g>
<g fill="hsl(120, 100%, 40%)">
<text y="132">Command Logging.10_000</text>
<text y="132" x="614.568806253432" text-anchor="end">616  μs</text>
</g>
<g>
<title>616  μs ±  27 μs</title>
<rect y="138" rx="5" height="22" width="614.568806253432" fill="hsl(120, 100%, 80%)" stroke="hsl(120, 100%, 55%)" />
<g stroke="hsl(120, 100%, 40%)"><line x1="587.8728506022314" x2="641.2647619046325" y1="149" y2="149" />
<line x1="587.8728506022314" x2="587.8728506022314" y1="143" y2="155" />
<line x1="641.2647619046325" x2="641.2647619046325" y1="143" y2="155" />
</g>
</g>
<g fill="hsl(180, 100%, 40%)">
<text y="187">Command Logging.100_000</text>
<text y="187" x="623.3466354217163" text-anchor="end">624  μs</text>
</g>
<g>
<title>624  μs ±  24 μs</title>
<rect y="193" rx="5" height="22" width="623.3466354217163" fill="hsl(180, 100%, 80%)" stroke="hsl(180, 100%, 55%)" />
<g stroke="hsl(180, 100%, 40%)"><line x1="599.0740665331112" x2="647.6192043103214" y1="204" y2="204" />
<line x1="599.0740665331112" x2="599.0740665331112" y1="198" y2="210" />
<line x1="647.6192043103214" x2="647.6192043103214" y1="198" y2="210" />
</g>
</g>
<g fill="hsl(240, 100%, 40%)">
<text y="242">File Logging.10_000</text>
<text y="242" x="884.2102438497941" text-anchor="end">886  μs</text>
</g>
<g>
<title>886  μs ±  56 μs</title>
<rect y="248" rx="5" height="22" width="884.2102438497941" fill="hsl(240, 100%, 80%)" stroke="hsl(240, 100%, 55%)" />
<g stroke="hsl(240, 100%, 40%)"><line x1="828.4204876995882" x2="940.0" y1="259" y2="259" />
<line x1="828.4204876995882" x2="828.4204876995882" y1="253" y2="265" />
<line x1="940.0" x2="940.0" y1="253" y2="265" />
</g>
</g>
<g fill="hsl(300, 100%, 40%)">
<text y="297">File Logging.100_000</text>
<text y="297" x="851.0290221062068" text-anchor="end">852  μs</text>
</g>
<g>
<title>852  μs ±  50 μs</title>
<rect y="303" rx="5" height="22" width="851.0290221062068" fill="hsl(300, 100%, 80%)" stroke="hsl(300, 100%, 55%)" />
<g stroke="hsl(300, 100%, 40%)"><line x1="800.8667801950213" x2="901.1912640173922" y1="314" y2="314" />
<line x1="800.8667801950213" x2="800.8667801950213" y1="308" y2="320" />
<line x1="901.1912640173922" x2="901.1912640173922" y1="308" y2="320" />
</g>
</g>
</g>
</svg>
