<svg xmlns="http://www.w3.org/2000/svg" height="337" width="960.0" font-size="16" font-family="sans-serif" stroke-width="2">
<g transform="translate(10.0 0)">
<g fill="hsl(0, 100%, 40%)">
<text y="22">Basic Logging.10_000</text>
<text y="22" x="472.3354626552465" text-anchor="end">454  μs</text>
</g>
<g>
<title>454  μs ±  40 μs</title>
<rect y="28" rx="5" height="22" width="472.3354626552465" fill="hsl(0, 100%, 80%)" stroke="hsl(0, 100%, 55%)" />
<g stroke="hsl(0, 100%, 40%)"><line x1="431.22972730488283" x2="513.4411980056101" y1="39" y2="39" />
<line x1="431.22972730488283" x2="431.22972730488283" y1="33" y2="45" />
<line x1="513.4411980056101" x2="513.4411980056101" y1="33" y2="45" />
</g>
</g>
<g fill="hsl(60, 100%, 40%)">
<text y="77">Basic Logging.100_000</text>
<text y="77" x="461.95642422460753" text-anchor="end">444  μs</text>
</g>
<g>
<title>444  μs ±  29 μs</title>
<rect y="83" rx="5" height="22" width="461.95642422460753" fill="hsl(60, 100%, 80%)" stroke="hsl(60, 100%, 55%)" />
<g stroke="hsl(60, 100%, 40%)"><line x1="431.9510410202816" x2="491.96180742893347" y1="94" y2="94" />
<line x1="431.9510410202816" x2="431.9510410202816" y1="88" y2="100" />
<line x1="491.96180742893347" x2="491.96180742893347" y1="88" y2="100" />
</g>
</g>
<g fill="hsl(120, 100%, 40%)">
<text y="132">Command Logging.10_000</text>
<text y="132" x="630.3486166679065" text-anchor="end">606  μs</text>
</g>
<g>
<title>606  μs ±  49 μs</title>
<rect y="138" rx="5" height="22" width="630.3486166679065" fill="hsl(120, 100%, 80%)" stroke="hsl(120, 100%, 55%)" />
<g stroke="hsl(120, 100%, 40%)"><line x1="579.8104606848061" x2="680.8867726510069" y1="149" y2="149" />
<line x1="579.8104606848061" x2="579.8104606848061" y1="143" y2="155" />
<line x1="680.8867726510069" x2="680.8867726510069" y1="143" y2="155" />
</g>
</g>
<g fill="hsl(180, 100%, 40%)">
<text y="187">Command Logging.100_000</text>
<text y="187" x="622.0319905042751" text-anchor="end">598  μs</text>
</g>
<g>
<title>598  μs ±  55 μs</title>
<rect y="193" rx="5" height="22" width="622.0319905042751" fill="hsl(180, 100%, 80%)" stroke="hsl(180, 100%, 55%)" />
<g stroke="hsl(180, 100%, 40%)"><line x1="564.8466611558865" x2="679.2173198526636" y1="204" y2="204" />
<line x1="564.8466611558865" x2="564.8466611558865" y1="198" y2="210" />
<line x1="679.2173198526636" x2="679.2173198526636" y1="198" y2="210" />
</g>
</g>
<g fill="hsl(240, 100%, 40%)">
<text y="242">File Logging.10_000</text>
<text y="242" x="889.5306668274361" text-anchor="end">855  μs</text>
</g>
<g>
<title>855  μs ±  45 μs</title>
<rect y="248" rx="5" height="22" width="889.5306668274361" fill="hsl(240, 100%, 80%)" stroke="hsl(240, 100%, 55%)" />
<g stroke="hsl(240, 100%, 40%)"><line x1="842.78680786727" x2="936.2745257876022" y1="259" y2="259" />
<line x1="842.78680786727" x2="842.78680786727" y1="253" y2="265" />
<line x1="936.2745257876022" x2="936.2745257876022" y1="253" y2="265" />
</g>
</g>
<g fill="hsl(300, 100%, 40%)">
<text y="297">File Logging.100_000</text>
<text y="297" x="869.6988393898908" text-anchor="end">836  μs</text>
</g>
<g>
<title>836  μs ±  68 μs</title>
<rect y="303" rx="5" height="22" width="869.6988393898908" fill="hsl(300, 100%, 80%)" stroke="hsl(300, 100%, 55%)" />
<g stroke="hsl(300, 100%, 40%)"><line x1="799.3976787797817" x2="940.0" y1="314" y2="314" />
<line x1="799.3976787797817" x2="799.3976787797817" y1="308" y2="320" />
<line x1="940.0" x2="940.0" y1="308" y2="320" />
</g>
</g>
</g>
</svg>
