<svg xmlns="http://www.w3.org/2000/svg" height="502" width="960.0" font-size="16" font-family="sans-serif" stroke-width="2">
<g transform="translate(10.0 0)">
<g fill="hsl(0, 100%, 40%)">
<text y="22">Basic Logging.10_000</text>
<text y="22" x="452.2822742464387" text-anchor="end">425  μs</text>
</g>
<g>
<title>425  μs ±  35 μs</title>
<rect y="28" rx="5" height="22" width="452.2822742464387" fill="hsl(0, 100%, 80%)" stroke="hsl(0, 100%, 55%)" />
<g stroke="hsl(0, 100%, 40%)"><line x1="414.4962980565097" x2="490.0682504363677" y1="39" y2="39" />
<line x1="414.4962980565097" x2="414.4962980565097" y1="33" y2="45" />
<line x1="490.0682504363677" x2="490.0682504363677" y1="33" y2="45" />
</g>
</g>
<g fill="hsl(40, 100%, 40%)">
<text y="77">Basic Logging.100_000</text>
<text y="77" x="441.6348626766531" text-anchor="end">415  μs</text>
</g>
<g>
<title>415  μs ±  35 μs</title>
<rect y="83" rx="5" height="22" width="441.6348626766531" fill="hsl(40, 100%, 80%)" stroke="hsl(40, 100%, 55%)" />
<g stroke="hsl(40, 100%, 40%)"><line x1="404.6031480600337" x2="478.6665772932725" y1="94" y2="94" />
<line x1="404.6031480600337" x2="404.6031480600337" y1="88" y2="100" />
<line x1="478.6665772932725" x2="478.6665772932725" y1="88" y2="100" />
</g>
</g>
<g fill="hsl(80, 100%, 40%)">
<text y="132">Basic Logging.1_000_000</text>
<text y="132" x="445.1758492818043" text-anchor="end">418  μs</text>
</g>
<g>
<title>418  μs ±  28 μs</title>
<rect y="138" rx="5" height="22" width="445.1758492818043" fill="hsl(80, 100%, 80%)" stroke="hsl(80, 100%, 55%)" />
<g stroke="hsl(80, 100%, 40%)"><line x1="415.7663415505612" x2="474.58535701304737" y1="149" y2="149" />
<line x1="415.7663415505612" x2="415.7663415505612" y1="143" y2="155" />
<line x1="474.58535701304737" x2="474.58535701304737" y1="143" y2="155" />
</g>
</g>
<g fill="hsl(120, 100%, 40%)">
<text y="187">Command Logging.10_000</text>
<text y="187" x="633.1206013040147" text-anchor="end">595  μs</text>
</g>
<g>
<title>595  μs ±  50 μs</title>
<rect y="193" rx="5" height="22" width="633.1206013040147" fill="hsl(120, 100%, 80%)" stroke="hsl(120, 100%, 55%)" />
<g stroke="hsl(120, 100%, 40%)"><line x1="579.8328366694598" x2="686.4083659385697" y1="204" y2="204" />
<line x1="579.8328366694598" x2="579.8328366694598" y1="198" y2="210" />
<line x1="686.4083659385697" x2="686.4083659385697" y1="198" y2="210" />
</g>
</g>
<g fill="hsl(160, 100%, 40%)">
<text y="242">Command Logging.100_000</text>
<text y="242" x="616.7963674041257" text-anchor="end">579  μs</text>
</g>
<g>
<title>579  μs ±  42 μs</title>
<rect y="248" rx="5" height="22" width="616.7963674041257" fill="hsl(160, 100%, 80%)" stroke="hsl(160, 100%, 55%)" />
<g stroke="hsl(160, 100%, 40%)"><line x1="572.1327737802379" x2="661.4599610280135" y1="259" y2="259" />
<line x1="572.1327737802379" x2="572.1327737802379" y1="253" y2="265" />
<line x1="661.4599610280135" x2="661.4599610280135" y1="253" y2="265" />
</g>
</g>
<g fill="hsl(200, 100%, 40%)">
<text y="297">Command Logging.1_000_000</text>
<text y="297" x="635.0543475906716" text-anchor="end">597  μs</text>
</g>
<g>
<title>597  μs ±  46 μs</title>
<rect y="303" rx="5" height="22" width="635.0543475906716" fill="hsl(200, 100%, 80%)" stroke="hsl(200, 100%, 55%)" />
<g stroke="hsl(200, 100%, 40%)"><line x1="585.8703921012492" x2="684.2383030800939" y1="314" y2="314" />
<line x1="585.8703921012492" x2="585.8703921012492" y1="308" y2="320" />
<line x1="684.2383030800939" x2="684.2383030800939" y1="308" y2="320" />
</g>
</g>
<g fill="hsl(240, 100%, 40%)">
<text y="352">File Logging.10_000</text>
<text y="352" x="868.6929487976236" text-anchor="end">816  μs</text>
</g>
<g>
<title>816  μs ±  47 μs</title>
<rect y="358" rx="5" height="22" width="868.6929487976236" fill="hsl(240, 100%, 80%)" stroke="hsl(240, 100%, 55%)" />
<g stroke="hsl(240, 100%, 40%)"><line x1="818.8090323003454" x2="918.5768652949017" y1="369" y2="369" />
<line x1="818.8090323003454" x2="818.8090323003454" y1="363" y2="375" />
<line x1="918.5768652949017" x2="918.5768652949017" y1="363" y2="375" />
</g>
</g>
<g fill="hsl(280, 100%, 40%)">
<text y="407">File Logging.100_000</text>
<text y="407" x="876.0856264157358" text-anchor="end">823  μs</text>
</g>
<g>
<title>823  μs ±  60 μs</title>
<rect y="413" rx="5" height="22" width="876.0856264157358" fill="hsl(280, 100%, 80%)" stroke="hsl(280, 100%, 55%)" />
<g stroke="hsl(280, 100%, 40%)"><line x1="812.1712528314715" x2="940.0" y1="424" y2="424" />
<line x1="812.1712528314715" x2="812.1712528314715" y1="418" y2="430" />
<line x1="940.0" x2="940.0" y1="418" y2="430" />
</g>
</g>
<g fill="hsl(320, 100%, 40%)">
<text y="462">File Logging.1_000_000</text>
<text y="462" x="853.3790002839576" text-anchor="end">802  μs</text>
</g>
<g>
<title>802  μs ±  59 μs</title>
<rect y="468" rx="5" height="22" width="853.3790002839576" fill="hsl(320, 100%, 80%)" stroke="hsl(320, 100%, 55%)" />
<g stroke="hsl(320, 100%, 40%)"><line x1="790.5997395159654" x2="916.1582610519497" y1="479" y2="479" />
<line x1="790.5997395159654" x2="790.5997395159654" y1="473" y2="485" />
<line x1="916.1582610519497" x2="916.1582610519497" y1="473" y2="485" />
</g>
</g>
</g>
</svg>
