<svg xmlns="http://www.w3.org/2000/svg" height="337" width="960.0" font-size="16" font-family="sans-serif" stroke-width="2">
<g transform="translate(10.0 0)">
<g fill="hsl(0, 100%, 40%)">
<text y="22">Basic Logging.10_000</text>
<text y="22" x="435.662897024221" text-anchor="end">447  μs</text>
</g>
<g>
<title>447  μs ±  25 μs</title>
<rect y="28" rx="5" height="22" width="435.662897024221" fill="hsl(0, 100%, 80%)" stroke="hsl(0, 100%, 55%)" />
<g stroke="hsl(0, 100%, 40%)"><line x1="410.95408857756735" x2="460.3717054708747" y1="39" y2="39" />
<line x1="410.95408857756735" x2="410.95408857756735" y1="33" y2="45" />
<line x1="460.3717054708747" x2="460.3717054708747" y1="33" y2="45" />
</g>
</g>
<g fill="hsl(60, 100%, 40%)">
<text y="77">Basic Logging.100_000</text>
<text y="77" x="424.33646196814306" text-anchor="end">436  μs</text>
</g>
<g>
<title>436  μs ±  22 μs</title>
<rect y="83" rx="5" height="22" width="424.33646196814306" fill="hsl(60, 100%, 80%)" stroke="hsl(60, 100%, 55%)" />
<g stroke="hsl(60, 100%, 40%)"><line x1="402.6477997726264" x2="446.0251241636597" y1="94" y2="94" />
<line x1="402.6477997726264" x2="402.6477997726264" y1="88" y2="100" />
<line x1="446.0251241636597" x2="446.0251241636597" y1="88" y2="100" />
</g>
</g>
<g fill="hsl(120, 100%, 40%)">
<text y="132">Command Logging.10_000</text>
<text y="132" x="606.5102259136615" text-anchor="end">623  μs</text>
</g>
<g>
<title>623  μs ±  19 μs</title>
<rect y="138" rx="5" height="22" width="606.5102259136615" fill="hsl(120, 100%, 80%)" stroke="hsl(120, 100%, 55%)" />
<g stroke="hsl(120, 100%, 40%)"><line x1="588.23258564793" x2="624.7878661793931" y1="149" y2="149" />
<line x1="588.23258564793" x2="588.23258564793" y1="143" y2="155" />
<line x1="624.7878661793931" x2="624.7878661793931" y1="143" y2="155" />
</g>
</g>
<g fill="hsl(180, 100%, 40%)">
<text y="187">Command Logging.100_000</text>
<text y="187" x="615.1852109197825" text-anchor="end">632  μs</text>
</g>
<g>
<title>632  μs ±  58 μs</title>
<rect y="193" rx="5" height="22" width="615.1852109197825" fill="hsl(180, 100%, 80%)" stroke="hsl(180, 100%, 55%)" />
<g stroke="hsl(180, 100%, 40%)"><line x1="558.3535196663532" x2="672.0169021732119" y1="204" y2="204" />
<line x1="558.3535196663532" x2="558.3535196663532" y1="198" y2="210" />
<line x1="672.0169021732119" x2="672.0169021732119" y1="198" y2="210" />
</g>
</g>
<g fill="hsl(240, 100%, 40%)">
<text y="242">File Logging.10_000</text>
<text y="242" x="862.7810162175264" text-anchor="end">886  μs</text>
</g>
<g>
<title>886  μs ±  57 μs</title>
<rect y="248" rx="5" height="22" width="862.7810162175264" fill="hsl(240, 100%, 80%)" stroke="hsl(240, 100%, 55%)" />
<g stroke="hsl(240, 100%, 40%)"><line x1="806.8697426053822" x2="918.6922898296706" y1="259" y2="259" />
<line x1="806.8697426053822" x2="806.8697426053822" y1="253" y2="265" />
<line x1="918.6922898296706" x2="918.6922898296706" y1="253" y2="265" />
</g>
</g>
<g fill="hsl(300, 100%, 40%)">
<text y="297">File Logging.100_000</text>
<text y="297" x="861.7657761247589" text-anchor="end">885  μs</text>
</g>
<g>
<title>885  μs ±  80 μs</title>
<rect y="303" rx="5" height="22" width="861.7657761247589" fill="hsl(300, 100%, 80%)" stroke="hsl(300, 100%, 55%)" />
<g stroke="hsl(300, 100%, 40%)"><line x1="783.5315522495177" x2="940.0" y1="314" y2="314" />
<line x1="783.5315522495177" x2="783.5315522495177" y1="308" y2="320" />
<line x1="940.0" x2="940.0" y1="308" y2="320" />
</g>
</g>
</g>
</svg>
