<svg xmlns="http://www.w3.org/2000/svg" height="337" width="960.0" font-size="16" font-family="sans-serif" stroke-width="2">
<g transform="translate(10.0 0)">
<text fill="hsl(0, 100%, 40%)" y="22">Basic Logging.10_000 14.0 ms</text>
<g>
<title>14.0 ms ± 788 μs</title>
<rect y="28" rx="5" height="22" width="11.907081643475326" fill="hsl(0, 100%, 80%)" stroke="hsl(0, 100%, 55%)" />
<g stroke="hsl(0, 100%, 40%)"><line x1="11.236467998757437" x2="12.577695288193215" y1="39" y2="39" />
<line x1="11.236467998757437" x2="11.236467998757437" y1="33" y2="45" />
<line x1="12.577695288193215" x2="12.577695288193215" y1="33" y2="45" />
</g>
</g>
<text fill="hsl(60, 100%, 40%)" y="77">Basic Logging.100_000 134  ms</text>
<g>
<title>134  ms ± 3.1 ms</title>
<rect y="83" rx="5" height="22" width="114.30877677057023" fill="hsl(60, 100%, 80%)" stroke="hsl(60, 100%, 55%)" />
<g stroke="hsl(60, 100%, 40%)"><line x1="111.6774912686765" x2="116.94006227246396" y1="94" y2="94" />
<line x1="111.6774912686765" x2="111.6774912686765" y1="88" y2="100" />
<line x1="116.94006227246396" x2="116.94006227246396" y1="88" y2="100" />
</g>
</g>
<text fill="hsl(120, 100%, 40%)" y="132">Command Logging.10_000 10.6 ms</text>
<g>
<title>10.6 ms ± 664 μs</title>
<rect y="138" rx="5" height="22" width="9.043866612994734" fill="hsl(120, 100%, 80%)" stroke="hsl(120, 100%, 55%)" />
<g stroke="hsl(120, 100%, 40%)"><line x1="8.478837044459624" x2="9.608896181529843" y1="149" y2="149" />
<line x1="8.478837044459624" x2="8.478837044459624" y1="143" y2="155" />
<line x1="9.608896181529843" x2="9.608896181529843" y1="143" y2="155" />
</g>
</g>
<text fill="hsl(180, 100%, 40%)" y="187">Command Logging.100_000 141  ms</text>
<g>
<title>141  ms ± 9.2 ms</title>
<rect y="193" rx="5" height="22" width="120.0519887021471" fill="hsl(180, 100%, 80%)" stroke="hsl(180, 100%, 55%)" />
<g stroke="hsl(180, 100%, 40%)"><line x1="112.19028961098824" x2="127.91368779330595" y1="204" y2="204" />
<line x1="112.19028961098824" x2="112.19028961098824" y1="198" y2="210" />
<line x1="127.91368779330595" x2="127.91368779330595" y1="198" y2="210" />
</g>
</g>
<text fill="hsl(240, 100%, 40%)" y="242">File Logging.10_000 67.2 ms</text>
<g>
<title>67.2 ms ± 4.0 ms</title>
<rect y="248" rx="5" height="22" width="57.20056170885757" fill="hsl(240, 100%, 80%)" stroke="hsl(240, 100%, 55%)" />
<g stroke="hsl(240, 100%, 40%)"><line x1="53.78438653383847" x2="60.61673688387667" y1="259" y2="259" />
<line x1="53.78438653383847" x2="53.78438653383847" y1="253" y2="265" />
<line x1="60.61673688387667" x2="60.61673688387667" y1="253" y2="265" />
</g>
</g>
<g fill="hsl(300, 100%, 40%)">
<text y="297">File Logging.100_000</text>
<text y="297" x="905.0729695069747" text-anchor="end">1.064 s</text>
</g>
<g>
<title>1.064 s ±  41 ms</title>
<rect y="303" rx="5" height="22" width="905.0729695069747" fill="hsl(300, 100%, 80%)" stroke="hsl(300, 100%, 55%)" />
<g stroke="hsl(300, 100%, 40%)"><line x1="870.1459390139494" x2="940.0" y1="314" y2="314" />
<line x1="870.1459390139494" x2="870.1459390139494" y1="308" y2="320" />
<line x1="940.0" x2="940.0" y1="308" y2="320" />
</g>
</g>
</g>
</svg>
