<svg xmlns="http://www.w3.org/2000/svg" height="337" width="960.0" font-size="16" font-family="sans-serif" stroke-width="2">
<g transform="translate(10.0 0)">
<g fill="hsl(0, 100%, 40%)">
<text y="22">Basic Logging.10_000</text>
<text y="22" x="499.33046384573856" text-anchor="end">449  μs</text>
</g>
<g>
<title>449  μs ±  16 μs</title>
<rect y="28" rx="5" height="22" width="499.33046384573856" fill="hsl(0, 100%, 80%)" stroke="hsl(0, 100%, 55%)" />
<g stroke="hsl(0, 100%, 40%)"><line x1="481.1110768640032" x2="517.549850827474" y1="39" y2="39" />
<line x1="481.1110768640032" x2="481.1110768640032" y1="33" y2="45" />
<line x1="517.549850827474" x2="517.549850827474" y1="33" y2="45" />
</g>
</g>
<g fill="hsl(60, 100%, 40%)">
<text y="77">Basic Logging.100_000</text>
<text y="77" x="502.77218982029325" text-anchor="end">452  μs</text>
</g>
<g>
<title>452  μs ±  44 μs</title>
<rect y="83" rx="5" height="22" width="502.77218982029325" fill="hsl(60, 100%, 80%)" stroke="hsl(60, 100%, 55%)" />
<g stroke="hsl(60, 100%, 40%)"><line x1="453.35252834974506" x2="552.1918512908414" y1="94" y2="94" />
<line x1="453.35252834974506" x2="453.35252834974506" y1="88" y2="100" />
<line x1="552.1918512908414" x2="552.1918512908414" y1="88" y2="100" />
</g>
</g>
<g fill="hsl(120, 100%, 40%)">
<text y="132">Command Logging.10_000</text>
<text y="132" x="607.9471986625905" text-anchor="end">546  μs</text>
</g>
<g>
<title>546  μs ±  45 μs</title>
<rect y="138" rx="5" height="22" width="607.9471986625905" fill="hsl(120, 100%, 80%)" stroke="hsl(120, 100%, 55%)" />
<g stroke="hsl(120, 100%, 40%)"><line x1="557.5885965170061" x2="658.3058008081749" y1="149" y2="149" />
<line x1="557.5885965170061" x2="557.5885965170061" y1="143" y2="155" />
<line x1="658.3058008081749" x2="658.3058008081749" y1="143" y2="155" />
</g>
</g>
<g fill="hsl(180, 100%, 40%)">
<text y="187">Command Logging.100_000</text>
<text y="187" x="613.2256380895577" text-anchor="end">551  μs</text>
</g>
<g>
<title>551  μs ±  50 μs</title>
<rect y="193" rx="5" height="22" width="613.2256380895577" fill="hsl(180, 100%, 80%)" stroke="hsl(180, 100%, 55%)" />
<g stroke="hsl(180, 100%, 40%)"><line x1="557.5079618100776" x2="668.9433143690378" y1="204" y2="204" />
<line x1="557.5079618100776" x2="557.5079618100776" y1="198" y2="210" />
<line x1="668.9433143690378" x2="668.9433143690378" y1="198" y2="210" />
</g>
</g>
<g fill="hsl(240, 100%, 40%)">
<text y="242">File Logging.10_000</text>
<text y="242" x="855.4321284497681" text-anchor="end">768  μs</text>
</g>
<g>
<title>768  μs ±  53 μs</title>
<rect y="248" rx="5" height="22" width="855.4321284497681" fill="hsl(240, 100%, 80%)" stroke="hsl(240, 100%, 55%)" />
<g stroke="hsl(240, 100%, 40%)"><line x1="796.7770955639403" x2="914.087161335596" y1="259" y2="259" />
<line x1="796.7770955639403" x2="796.7770955639403" y1="253" y2="265" />
<line x1="914.087161335596" x2="914.087161335596" y1="253" y2="265" />
</g>
</g>
<g fill="hsl(300, 100%, 40%)">
<text y="297">File Logging.100_000</text>
<text y="297" x="879.4731664871323" text-anchor="end">790  μs</text>
</g>
<g>
<title>790  μs ±  54 μs</title>
<rect y="303" rx="5" height="22" width="879.4731664871323" fill="hsl(300, 100%, 80%)" stroke="hsl(300, 100%, 55%)" />
<g stroke="hsl(300, 100%, 40%)"><line x1="818.9463329742646" x2="940.0" y1="314" y2="314" />
<line x1="818.9463329742646" x2="818.9463329742646" y1="308" y2="320" />
<line x1="940.0" x2="940.0" y1="308" y2="320" />
</g>
</g>
</g>
</svg>
