<svg xmlns="http://www.w3.org/2000/svg" height="502" width="960.0" font-size="16" font-family="sans-serif" stroke-width="2">
<g transform="translate(10.0 0)">
<text fill="hsl(0, 100%, 40%)" y="22">Basic Logging.10_000 19.3 ms</text>
<g>
<title>19.3 ms ± 1.5 ms</title>
<rect y="28" rx="5" height="22" width="0.5412800126684962" fill="hsl(0, 100%, 80%)" stroke="hsl(0, 100%, 55%)" />
<g stroke="hsl(0, 100%, 40%)"><line x1="0.49876724902366676" x2="0.5837927763133257" y1="39" y2="39" />
<line x1="0.49876724902366676" x2="0.49876724902366676" y1="33" y2="45" />
<line x1="0.5837927763133257" x2="0.5837927763133257" y1="33" y2="45" />
</g>
</g>
<text fill="hsl(40, 100%, 40%)" y="77">Basic Logging.100_000 168  ms</text>
<g>
<title>168  ms ± 4.1 ms</title>
<rect y="83" rx="5" height="22" width="4.699176794527147" fill="hsl(40, 100%, 80%)" stroke="hsl(40, 100%, 55%)" />
<g stroke="hsl(40, 100%, 40%)"><line x1="4.583848397307376" x2="4.8145051917469175" y1="94" y2="94" />
<line x1="4.583848397307376" x2="4.583848397307376" y1="88" y2="100" />
<line x1="4.8145051917469175" x2="4.8145051917469175" y1="88" y2="100" />
</g>
</g>
<text fill="hsl(80, 100%, 40%)" y="132">Basic Logging.1_000_000 1.705 s</text>
<g>
<title>1.705 s ±  88 ms</title>
<rect y="138" rx="5" height="22" width="47.83624707879625" fill="hsl(80, 100%, 80%)" stroke="hsl(80, 100%, 55%)" />
<g stroke="hsl(80, 100%, 40%)"><line x1="45.364222417273915" x2="50.30827174031858" y1="149" y2="149" />
<line x1="45.364222417273915" x2="45.364222417273915" y1="143" y2="155" />
<line x1="50.30827174031858" x2="50.30827174031858" y1="143" y2="155" />
</g>
</g>
<text fill="hsl(120, 100%, 40%)" y="187">Command Logging.10_000 1.64 ms</text>
<g>
<title>1.64 ms ± 100 μs</title>
<rect y="193" rx="5" height="22" width="0.046133943249092826" fill="hsl(120, 100%, 80%)" stroke="hsl(120, 100%, 55%)" />
<g stroke="hsl(120, 100%, 40%)"><line x1="0.043323422576794876" x2="0.04894446392139078" y1="204" y2="204" />
<line x1="0.043323422576794876" x2="0.043323422576794876" y1="198" y2="210" />
<line x1="0.04894446392139078" x2="0.04894446392139078" y1="198" y2="210" />
</g>
</g>
<text fill="hsl(160, 100%, 40%)" y="242">Command Logging.100_000 366  ms</text>
<g>
<title>366  ms ±  21 ms</title>
<rect y="248" rx="5" height="22" width="10.277610588880766" fill="hsl(160, 100%, 80%)" stroke="hsl(160, 100%, 55%)" />
<g stroke="hsl(160, 100%, 40%)"><line x1="9.697104539299879" x2="10.858116638461652" y1="259" y2="259" />
<line x1="9.697104539299879" x2="9.697104539299879" y1="253" y2="265" />
<line x1="10.858116638461652" x2="10.858116638461652" y1="253" y2="265" />
</g>
</g>
<text fill="hsl(200, 100%, 40%)" y="297">Command Logging.1_000_000 4.805 s</text>
<g>
<title>4.805 s ±  93 ms</title>
<rect y="303" rx="5" height="22" width="134.8058427553607" fill="hsl(200, 100%, 80%)" stroke="hsl(200, 100%, 55%)" />
<g stroke="hsl(200, 100%, 40%)"><line x1="132.20564396055354" x2="137.40604155016783" y1="314" y2="314" />
<line x1="132.20564396055354" x2="132.20564396055354" y1="308" y2="320" />
<line x1="137.40604155016783" x2="137.40604155016783" y1="308" y2="320" />
</g>
</g>
<text fill="hsl(240, 100%, 40%)" y="352">File Logging.10_000 13.6 ms</text>
<g>
<title>13.6 ms ± 663 μs</title>
<rect y="358" rx="5" height="22" width="0.3824514352197554" fill="hsl(240, 100%, 80%)" stroke="hsl(240, 100%, 55%)" />
<g stroke="hsl(240, 100%, 40%)"><line x1="0.36384301599056" x2="0.40105985444895076" y1="369" y2="369" />
<line x1="0.36384301599056" x2="0.36384301599056" y1="363" y2="375" />
<line x1="0.40105985444895076" x2="0.40105985444895076" y1="363" y2="375" />
</g>
</g>
<text fill="hsl(280, 100%, 40%)" y="407">File Logging.100_000 2.436 s</text>
<g>
<title>2.436 s ±  37 ms</title>
<rect y="413" rx="5" height="22" width="68.33025519989837" fill="hsl(280, 100%, 80%)" stroke="hsl(280, 100%, 55%)" />
<g stroke="hsl(280, 100%, 40%)"><line x1="67.2911314757451" x2="69.36937892405165" y1="424" y2="424" />
<line x1="67.2911314757451" x2="67.2911314757451" y1="418" y2="430" />
<line x1="69.36937892405165" x2="69.36937892405165" y1="418" y2="430" />
</g>
</g>
<g fill="hsl(320, 100%, 40%)">
<text y="462">File Logging.1_000_000</text>
<text y="462" x="925.5750655466917" text-anchor="end">32.994 s</text>
</g>
<g>
<title>32.994 s ± 514 ms</title>
<rect y="468" rx="5" height="22" width="925.5750655466917" fill="hsl(320, 100%, 80%)" stroke="hsl(320, 100%, 55%)" />
<g stroke="hsl(320, 100%, 40%)"><line x1="911.1501310933834" x2="940.0" y1="479" y2="479" />
<line x1="911.1501310933834" x2="911.1501310933834" y1="473" y2="485" />
<line x1="940.0" x2="940.0" y1="473" y2="485" />
</g>
</g>
</g>
</svg>
