<svg xmlns="http://www.w3.org/2000/svg" height="337" width="960.0" font-size="16" font-family="sans-serif" stroke-width="2">
<g transform="translate(10.0 0)">
<g fill="hsl(0, 100%, 40%)">
<text y="22">Basic Logging.10_000</text>
<text y="22" x="497.3741022528616" text-anchor="end">450  μs</text>
</g>
<g>
<title>450  μs ±  13 μs</title>
<rect y="28" rx="5" height="22" width="497.3741022528616" fill="hsl(0, 100%, 80%)" stroke="hsl(0, 100%, 55%)" />
<g stroke="hsl(0, 100%, 40%)"><line x1="482.90584386163533" x2="511.8423606440878" y1="39" y2="39" />
<line x1="482.90584386163533" x2="482.90584386163533" y1="33" y2="45" />
<line x1="511.8423606440878" x2="511.8423606440878" y1="33" y2="45" />
</g>
</g>
<g fill="hsl(60, 100%, 40%)">
<text y="77">Basic Logging.100_000</text>
<text y="77" x="497.6055173795979" text-anchor="end">450  μs</text>
</g>
<g>
<title>450  μs ±  26 μs</title>
<rect y="83" rx="5" height="22" width="497.6055173795979" fill="hsl(60, 100%, 80%)" stroke="hsl(60, 100%, 55%)" />
<g stroke="hsl(60, 100%, 40%)"><line x1="469.00667703843794" x2="526.2043577207579" y1="94" y2="94" />
<line x1="469.00667703843794" x2="469.00667703843794" y1="88" y2="100" />
<line x1="526.2043577207579" x2="526.2043577207579" y1="88" y2="100" />
</g>
</g>
<g fill="hsl(120, 100%, 40%)">
<text y="132">Command Logging.10_000</text>
<text y="132" x="628.8434082337221" text-anchor="end">569  μs</text>
</g>
<g>
<title>569  μs ±  38 μs</title>
<rect y="138" rx="5" height="22" width="628.8434082337221" fill="hsl(120, 100%, 80%)" stroke="hsl(120, 100%, 55%)" />
<g stroke="hsl(120, 100%, 40%)"><line x1="587.106436432395" x2="670.5803800350493" y1="149" y2="149" />
<line x1="587.106436432395" x2="587.106436432395" y1="143" y2="155" />
<line x1="670.5803800350493" x2="670.5803800350493" y1="143" y2="155" />
</g>
</g>
<g fill="hsl(180, 100%, 40%)">
<text y="187">Command Logging.100_000</text>
<text y="187" x="633.9715254220125" text-anchor="end">573  μs</text>
</g>
<g>
<title>573  μs ±  47 μs</title>
<rect y="193" rx="5" height="22" width="633.9715254220125" fill="hsl(180, 100%, 80%)" stroke="hsl(180, 100%, 55%)" />
<g stroke="hsl(180, 100%, 40%)"><line x1="581.6478017158715" x2="686.2952491281535" y1="204" y2="204" />
<line x1="581.6478017158715" x2="581.6478017158715" y1="198" y2="210" />
<line x1="686.2952491281535" x2="686.2952491281535" y1="198" y2="210" />
</g>
</g>
<g fill="hsl(240, 100%, 40%)">
<text y="242">File Logging.10_000</text>
<text y="242" x="892.2351128232751" text-anchor="end">807  μs</text>
</g>
<g>
<title>807  μs ±  43 μs</title>
<rect y="248" rx="5" height="22" width="892.2351128232751" fill="hsl(240, 100%, 80%)" stroke="hsl(240, 100%, 55%)" />
<g stroke="hsl(240, 100%, 40%)"><line x1="844.4702256465503" x2="940.0" y1="259" y2="259" />
<line x1="844.4702256465503" x2="844.4702256465503" y1="253" y2="265" />
<line x1="940.0" x2="940.0" y1="253" y2="265" />
</g>
</g>
<g fill="hsl(300, 100%, 40%)">
<text y="297">File Logging.100_000</text>
<text y="297" x="865.7206175536201" text-anchor="end">783  μs</text>
</g>
<g>
<title>783  μs ±  32 μs</title>
<rect y="303" rx="5" height="22" width="865.7206175536201" fill="hsl(300, 100%, 80%)" stroke="hsl(300, 100%, 55%)" />
<g stroke="hsl(300, 100%, 40%)"><line x1="829.8692011543731" x2="901.5720339528671" y1="314" y2="314" />
<line x1="829.8692011543731" x2="829.8692011543731" y1="308" y2="320" />
<line x1="901.5720339528671" x2="901.5720339528671" y1="308" y2="320" />
</g>
</g>
</g>
</svg>
