<svg xmlns="http://www.w3.org/2000/svg" height="502" width="960.0" font-size="16" font-family="sans-serif" stroke-width="2">
<g transform="translate(10.0 0)">
<g fill="hsl(0, 100%, 40%)">
<text y="22">Basic Logging.10_000</text>
<text y="22" x="334.46591369952296" text-anchor="end">479  μs</text>
</g>
<g>
<title>479  μs ±  27 μs</title>
<rect y="28" rx="5" height="22" width="334.46591369952296" fill="hsl(0, 100%, 80%)" stroke="hsl(0, 100%, 55%)" />
<g stroke="hsl(0, 100%, 40%)"><line x1="315.54048320581444" x2="353.3913441932315" y1="39" y2="39" />
<line x1="315.54048320581444" x2="315.54048320581444" y1="33" y2="45" />
<line x1="353.3913441932315" x2="353.3913441932315" y1="33" y2="45" />
</g>
</g>
<g fill="hsl(40, 100%, 40%)">
<text y="77">Basic Logging.100_000</text>
<text y="77" x="336.77535066056464" text-anchor="end">482  μs</text>
</g>
<g>
<title>482  μs ±  31 μs</title>
<rect y="83" rx="5" height="22" width="336.77535066056464" fill="hsl(40, 100%, 80%)" stroke="hsl(40, 100%, 55%)" />
<g stroke="hsl(40, 100%, 40%)"><line x1="315.1428666284005" x2="358.4078346927288" y1="94" y2="94" />
<line x1="315.1428666284005" x2="315.1428666284005" y1="88" y2="100" />
<line x1="358.4078346927288" x2="358.4078346927288" y1="88" y2="100" />
</g>
</g>
<g fill="hsl(80, 100%, 40%)">
<text y="132">Basic Logging.1_000_000</text>
<text y="132" x="330.4361183901389" text-anchor="end">473  μs</text>
</g>
<g>
<title>473  μs ±  22 μs</title>
<rect y="138" rx="5" height="22" width="330.4361183901389" fill="hsl(80, 100%, 80%)" stroke="hsl(80, 100%, 55%)" />
<g stroke="hsl(80, 100%, 40%)"><line x1="315.0927283266044" x2="345.77950845367343" y1="149" y2="149" />
<line x1="315.0927283266044" x2="315.0927283266044" y1="143" y2="155" />
<line x1="345.77950845367343" x2="345.77950845367343" y1="143" y2="155" />
</g>
</g>
<g fill="hsl(120, 100%, 40%)">
<text y="187">Command Logging.10_000</text>
<text y="187" x="584.9112690762686" text-anchor="end">838  μs</text>
</g>
<g>
<title>838  μs ±  32 μs</title>
<rect y="193" rx="5" height="22" width="584.9112690762686" fill="hsl(120, 100%, 80%)" stroke="hsl(120, 100%, 55%)" />
<g stroke="hsl(120, 100%, 40%)"><line x1="562.3629995983106" x2="607.4595385542266" y1="204" y2="204" />
<line x1="562.3629995983106" x2="562.3629995983106" y1="198" y2="210" />
<line x1="607.4595385542266" x2="607.4595385542266" y1="198" y2="210" />
</g>
</g>
<g fill="hsl(160, 100%, 40%)">
<text y="242">Command Logging.100_000</text>
<text y="242" x="611.7244586608923" text-anchor="end">876  μs</text>
</g>
<g>
<title>876  μs ±  76 μs</title>
<rect y="248" rx="5" height="22" width="611.7244586608923" fill="hsl(160, 100%, 80%)" stroke="hsl(160, 100%, 55%)" />
<g stroke="hsl(160, 100%, 40%)"><line x1="558.3624859621032" x2="665.0864313596815" y1="259" y2="259" />
<line x1="558.3624859621032" x2="558.3624859621032" y1="253" y2="265" />
<line x1="665.0864313596815" x2="665.0864313596815" y1="253" y2="265" />
</g>
</g>
<g fill="hsl(200, 100%, 40%)">
<text y="297">Command Logging.1_000_000</text>
<text y="297" x="598.0965057030317" text-anchor="end">857  μs</text>
</g>
<g>
<title>857  μs ±  65 μs</title>
<rect y="303" rx="5" height="22" width="598.0965057030317" fill="hsl(200, 100%, 80%)" stroke="hsl(200, 100%, 55%)" />
<g stroke="hsl(200, 100%, 40%)"><line x1="552.7058889818279" x2="643.4871224242354" y1="314" y2="314" />
<line x1="552.7058889818279" x2="552.7058889818279" y1="308" y2="320" />
<line x1="643.4871224242354" x2="643.4871224242354" y1="308" y2="320" />
</g>
</g>
<g fill="hsl(240, 100%, 40%)">
<text y="352">File Logging.10_000</text>
<text y="352" x="864.7252810127601" text-anchor="end">1.24 ms</text>
</g>
<g>
<title>1.24 ms ± 108 μs</title>
<rect y="358" rx="5" height="22" width="864.7252810127601" fill="hsl(240, 100%, 80%)" stroke="hsl(240, 100%, 55%)" />
<g stroke="hsl(240, 100%, 40%)"><line x1="789.4505620255202" x2="940.0" y1="369" y2="369" />
<line x1="789.4505620255202" x2="789.4505620255202" y1="363" y2="375" />
<line x1="940.0" x2="940.0" y1="363" y2="375" />
</g>
</g>
<g fill="hsl(280, 100%, 40%)">
<text y="407">File Logging.100_000</text>
<text y="407" x="842.3064546008671" text-anchor="end">1.21 ms</text>
</g>
<g>
<title>1.21 ms ±  78 μs</title>
<rect y="413" rx="5" height="22" width="842.3064546008671" fill="hsl(280, 100%, 80%)" stroke="hsl(280, 100%, 55%)" />
<g stroke="hsl(280, 100%, 40%)"><line x1="787.9417200556361" x2="896.6711891460982" y1="424" y2="424" />
<line x1="787.9417200556361" x2="787.9417200556361" y1="418" y2="430" />
<line x1="896.6711891460982" x2="896.6711891460982" y1="418" y2="430" />
</g>
</g>
<g fill="hsl(320, 100%, 40%)">
<text y="462">File Logging.1_000_000</text>
<text y="462" x="818.9362642813566" text-anchor="end">1.17 ms</text>
</g>
<g>
<title>1.17 ms ±  95 μs</title>
<rect y="468" rx="5" height="22" width="818.9362642813566" fill="hsl(320, 100%, 80%)" stroke="hsl(320, 100%, 55%)" />
<g stroke="hsl(320, 100%, 40%)"><line x1="752.4270689020816" x2="885.4454596606315" y1="479" y2="479" />
<line x1="752.4270689020816" x2="752.4270689020816" y1="473" y2="485" />
<line x1="885.4454596606315" x2="885.4454596606315" y1="473" y2="485" />
</g>
</g>
</g>
</svg>
