<svg xmlns="http://www.w3.org/2000/svg" height="337" width="960.0" font-size="16" font-family="sans-serif" stroke-width="2">
<g transform="translate(10.0 0)">
<g fill="hsl(0, 100%, 40%)">
<text y="22">Basic Logging.10_000</text>
<text y="22" x="497.65317747400843" text-anchor="end">453  μs</text>
</g>
<g>
<title>453  μs ±  21 μs</title>
<rect y="28" rx="5" height="22" width="497.65317747400843" fill="hsl(0, 100%, 80%)" stroke="hsl(0, 100%, 55%)" />
<g stroke="hsl(0, 100%, 40%)"><line x1="474.45567587098174" x2="520.8506790770351" y1="39" y2="39" />
<line x1="474.45567587098174" x2="474.45567587098174" y1="33" y2="45" />
<line x1="520.8506790770351" x2="520.8506790770351" y1="33" y2="45" />
</g>
</g>
<g fill="hsl(60, 100%, 40%)">
<text y="77">Basic Logging.100_000</text>
<text y="77" x="493.9942062076997" text-anchor="end">450  μs</text>
</g>
<g>
<title>450  μs ±  22 μs</title>
<rect y="83" rx="5" height="22" width="493.9942062076997" fill="hsl(60, 100%, 80%)" stroke="hsl(60, 100%, 55%)" />
<g stroke="hsl(60, 100%, 40%)"><line x1="469.6329315476938" x2="518.3554808677055" y1="94" y2="94" />
<line x1="469.6329315476938" x2="469.6329315476938" y1="88" y2="100" />
<line x1="518.3554808677055" x2="518.3554808677055" y1="88" y2="100" />
</g>
</g>
<g fill="hsl(120, 100%, 40%)">
<text y="132">Command Logging.10_000</text>
<text y="132" x="610.3143555610745" text-anchor="end">556  μs</text>
</g>
<g>
<title>556  μs ±  42 μs</title>
<rect y="138" rx="5" height="22" width="610.3143555610745" fill="hsl(120, 100%, 80%)" stroke="hsl(120, 100%, 55%)" />
<g stroke="hsl(120, 100%, 40%)"><line x1="563.9420102100739" x2="656.6867009120751" y1="149" y2="149" />
<line x1="563.9420102100739" x2="563.9420102100739" y1="143" y2="155" />
<line x1="656.6867009120751" x2="656.6867009120751" y1="143" y2="155" />
</g>
</g>
<g fill="hsl(180, 100%, 40%)">
<text y="187">Command Logging.100_000</text>
<text y="187" x="618.2964859809198" text-anchor="end">563  μs</text>
</g>
<g>
<title>563  μs ±  54 μs</title>
<rect y="193" rx="5" height="22" width="618.2964859809198" fill="hsl(180, 100%, 80%)" stroke="hsl(180, 100%, 55%)" />
<g stroke="hsl(180, 100%, 40%)"><line x1="558.4922250664662" x2="678.1007468953734" y1="204" y2="204" />
<line x1="558.4922250664662" x2="558.4922250664662" y1="198" y2="210" />
<line x1="678.1007468953734" x2="678.1007468953734" y1="198" y2="210" />
</g>
</g>
<g fill="hsl(240, 100%, 40%)">
<text y="242">File Logging.10_000</text>
<text y="242" x="866.8571891702333" text-anchor="end">789  μs</text>
</g>
<g>
<title>789  μs ±  67 μs</title>
<rect y="248" rx="5" height="22" width="866.8571891702333" fill="hsl(240, 100%, 80%)" stroke="hsl(240, 100%, 55%)" />
<g stroke="hsl(240, 100%, 40%)"><line x1="793.7143783404665" x2="940.0" y1="259" y2="259" />
<line x1="793.7143783404665" x2="793.7143783404665" y1="253" y2="265" />
<line x1="940.0" x2="940.0" y1="253" y2="265" />
</g>
</g>
<g fill="hsl(300, 100%, 40%)">
<text y="297">File Logging.100_000</text>
<text y="297" x="838.8493274296937" text-anchor="end">764  μs</text>
</g>
<g>
<title>764  μs ±  74 μs</title>
<rect y="303" rx="5" height="22" width="838.8493274296937" fill="hsl(300, 100%, 80%)" stroke="hsl(300, 100%, 55%)" />
<g stroke="hsl(300, 100%, 40%)"><line x1="758.0055120287454" x2="919.693142830642" y1="314" y2="314" />
<line x1="758.0055120287454" x2="758.0055120287454" y1="308" y2="320" />
<line x1="919.693142830642" x2="919.693142830642" y1="308" y2="320" />
</g>
</g>
</g>
</svg>
