<svg xmlns="http://www.w3.org/2000/svg" height="337" width="960.0" font-size="16" font-family="sans-serif" stroke-width="2">
<g transform="translate(10.0 0)">
<g fill="hsl(0, 100%, 40%)">
<text y="22">Basic Logging.10_000</text>
<text y="22" x="503.9574612101777" text-anchor="end">447  μs</text>
</g>
<g>
<title>447  μs ±  42 μs</title>
<rect y="28" rx="5" height="22" width="503.9574612101777" fill="hsl(0, 100%, 80%)" stroke="hsl(0, 100%, 55%)" />
<g stroke="hsl(0, 100%, 40%)"><line x1="456.35082360356495" x2="551.5640988167904" y1="39" y2="39" />
<line x1="456.35082360356495" x2="456.35082360356495" y1="33" y2="45" />
<line x1="551.5640988167904" x2="551.5640988167904" y1="33" y2="45" />
</g>
</g>
<g fill="hsl(60, 100%, 40%)">
<text y="77">Basic Logging.100_000</text>
<text y="77" x="492.42082745275684" text-anchor="end">437  μs</text>
</g>
<g>
<title>437  μs ±  26 μs</title>
<rect y="83" rx="5" height="22" width="492.42082745275684" fill="hsl(60, 100%, 80%)" stroke="hsl(60, 100%, 55%)" />
<g stroke="hsl(60, 100%, 40%)"><line x1="463.33516850340544" x2="521.5064864021083" y1="94" y2="94" />
<line x1="463.33516850340544" x2="463.33516850340544" y1="88" y2="100" />
<line x1="521.5064864021083" x2="521.5064864021083" y1="88" y2="100" />
</g>
</g>
<g fill="hsl(120, 100%, 40%)">
<text y="132">Command Logging.10_000</text>
<text y="132" x="600.9535951810616" text-anchor="end">533  μs</text>
</g>
<g>
<title>533  μs ±  49 μs</title>
<rect y="138" rx="5" height="22" width="600.9535951810616" fill="hsl(120, 100%, 80%)" stroke="hsl(120, 100%, 55%)" />
<g stroke="hsl(120, 100%, 40%)"><line x1="545.3769910431763" x2="656.5301993189469" y1="149" y2="149" />
<line x1="545.3769910431763" x2="545.3769910431763" y1="143" y2="155" />
<line x1="656.5301993189469" x2="656.5301993189469" y1="143" y2="155" />
</g>
</g>
<g fill="hsl(180, 100%, 40%)">
<text y="187">Command Logging.100_000</text>
<text y="187" x="599.6011911659432" text-anchor="end">532  μs</text>
</g>
<g>
<title>532  μs ±  49 μs</title>
<rect y="193" rx="5" height="22" width="599.6011911659432" fill="hsl(180, 100%, 80%)" stroke="hsl(180, 100%, 55%)" />
<g stroke="hsl(180, 100%, 40%)"><line x1="544.7773738524282" x2="654.4250084794581" y1="204" y2="204" />
<line x1="544.7773738524282" x2="544.7773738524282" y1="198" y2="210" />
<line x1="654.4250084794581" x2="654.4250084794581" y1="198" y2="210" />
</g>
</g>
<g fill="hsl(240, 100%, 40%)">
<text y="242">File Logging.10_000</text>
<text y="242" x="864.0524414127123" text-anchor="end">766  μs</text>
</g>
<g>
<title>766  μs ±  67 μs</title>
<rect y="248" rx="5" height="22" width="864.0524414127123" fill="hsl(240, 100%, 80%)" stroke="hsl(240, 100%, 55%)" />
<g stroke="hsl(240, 100%, 40%)"><line x1="788.1048828254245" x2="940.0" y1="259" y2="259" />
<line x1="788.1048828254245" x2="788.1048828254245" y1="253" y2="265" />
<line x1="940.0" x2="940.0" y1="253" y2="265" />
</g>
</g>
<g fill="hsl(300, 100%, 40%)">
<text y="297">File Logging.100_000</text>
<text y="297" x="859.3353382485576" text-anchor="end">762  μs</text>
</g>
<g>
<title>762  μs ±  53 μs</title>
<rect y="303" rx="5" height="22" width="859.3353382485576" fill="hsl(300, 100%, 80%)" stroke="hsl(300, 100%, 55%)" />
<g stroke="hsl(300, 100%, 40%)"><line x1="799.3728296279291" x2="919.2978468691861" y1="314" y2="314" />
<line x1="799.3728296279291" x2="799.3728296279291" y1="308" y2="320" />
<line x1="919.2978468691861" x2="919.2978468691861" y1="308" y2="320" />
</g>
</g>
</g>
</svg>
