<svg xmlns="http://www.w3.org/2000/svg" height="337" width="960.0" font-size="16" font-family="sans-serif" stroke-width="2">
<g transform="translate(10.0 0)">
<g fill="hsl(0, 100%, 40%)">
<text y="22">Basic Logging.10_000</text>
<text y="22" x="384.21962463482595" text-anchor="end">509  μs</text>
</g>
<g>
<title>509  μs ±  49 μs</title>
<rect y="28" rx="5" height="22" width="384.21962463482595" fill="hsl(0, 100%, 80%)" stroke="hsl(0, 100%, 55%)" />
<g stroke="hsl(0, 100%, 40%)"><line x1="347.14983925483773" x2="421.28941001481417" y1="39" y2="39" />
<line x1="347.14983925483773" x2="347.14983925483773" y1="33" y2="45" />
<line x1="421.28941001481417" x2="421.28941001481417" y1="33" y2="45" />
</g>
</g>
<g fill="hsl(60, 100%, 40%)">
<text y="77">Basic Logging.100_000</text>
<text y="77" x="387.60328772445297" text-anchor="end">514  μs</text>
</g>
<g>
<title>514  μs ±  35 μs</title>
<rect y="83" rx="5" height="22" width="387.60328772445297" fill="hsl(60, 100%, 80%)" stroke="hsl(60, 100%, 55%)" />
<g stroke="hsl(60, 100%, 40%)"><line x1="361.49379123801435" x2="413.7127842108916" y1="94" y2="94" />
<line x1="361.49379123801435" x2="361.49379123801435" y1="88" y2="100" />
<line x1="413.7127842108916" x2="413.7127842108916" y1="88" y2="100" />
</g>
</g>
<g fill="hsl(120, 100%, 40%)">
<text y="132">Command Logging.10_000</text>
<text y="132" x="629.9147669481013" text-anchor="end">835  μs</text>
</g>
<g>
<title>835  μs ±  73 μs</title>
<rect y="138" rx="5" height="22" width="629.9147669481013" fill="hsl(120, 100%, 80%)" stroke="hsl(120, 100%, 55%)" />
<g stroke="hsl(120, 100%, 40%)"><line x1="574.670096025908" x2="685.1594378702945" y1="149" y2="149" />
<line x1="574.670096025908" x2="574.670096025908" y1="143" y2="155" />
<line x1="685.1594378702945" x2="685.1594378702945" y1="143" y2="155" />
</g>
</g>
<g fill="hsl(180, 100%, 40%)">
<text y="187">Command Logging.100_000</text>
<text y="187" x="604.6877518127515" text-anchor="end">801  μs</text>
</g>
<g>
<title>801  μs ±  62 μs</title>
<rect y="193" rx="5" height="22" width="604.6877518127515" fill="hsl(180, 100%, 80%)" stroke="hsl(180, 100%, 55%)" />
<g stroke="hsl(180, 100%, 40%)"><line x1="557.7992173713529" x2="651.57628625415" y1="204" y2="204" />
<line x1="557.7992173713529" x2="557.7992173713529" y1="198" y2="210" />
<line x1="651.57628625415" x2="651.57628625415" y1="198" y2="210" />
</g>
</g>
<g fill="hsl(240, 100%, 40%)">
<text y="242">File Logging.10_000</text>
<text y="242" x="894.0166214705929" text-anchor="end">1.18 ms</text>
</g>
<g>
<title>1.18 ms ±  60 μs</title>
<rect y="248" rx="5" height="22" width="894.0166214705929" fill="hsl(240, 100%, 80%)" stroke="hsl(240, 100%, 55%)" />
<g stroke="hsl(240, 100%, 40%)"><line x1="848.7775394407904" x2="939.2557035003954" y1="259" y2="259" />
<line x1="848.7775394407904" x2="848.7775394407904" y1="253" y2="265" />
<line x1="939.2557035003954" x2="939.2557035003954" y1="253" y2="265" />
</g>
</g>
<g fill="hsl(300, 100%, 40%)">
<text y="297">File Logging.100_000</text>
<text y="297" x="860.1991479441663" text-anchor="end">1.14 ms</text>
</g>
<g>
<title>1.14 ms ± 106 μs</title>
<rect y="303" rx="5" height="22" width="860.1991479441663" fill="hsl(300, 100%, 80%)" stroke="hsl(300, 100%, 55%)" />
<g stroke="hsl(300, 100%, 40%)"><line x1="780.3982958883325" x2="940.0" y1="314" y2="314" />
<line x1="780.3982958883325" x2="780.3982958883325" y1="308" y2="320" />
<line x1="940.0" x2="940.0" y1="308" y2="320" />
</g>
</g>
</g>
</svg>
