<svg xmlns="http://www.w3.org/2000/svg" height="502" width="960.0" font-size="16" font-family="sans-serif" stroke-width="2">
<g transform="translate(10.0 0)">
<text fill="hsl(0, 100%, 40%)" y="22">Basic Logging.10_000 16.7 ms</text>
<g>
<title>16.7 ms ± 693 μs</title>
<rect y="28" rx="5" height="22" width="0.42539529495426526" fill="hsl(0, 100%, 80%)" stroke="hsl(0, 100%, 55%)" />
<g stroke="hsl(0, 100%, 40%)"><line x1="0.407743945969663" x2="0.4430466439388675" y1="39" y2="39" />
<line x1="0.407743945969663" x2="0.407743945969663" y1="33" y2="45" />
<line x1="0.4430466439388675" x2="0.4430466439388675" y1="33" y2="45" />
</g>
</g>
<text fill="hsl(40, 100%, 40%)" y="77">Basic Logging.100_000 163  ms</text>
<g>
<title>163  ms ± 3.5 ms</title>
<rect y="83" rx="5" height="22" width="4.15737718893783" fill="hsl(40, 100%, 80%)" stroke="hsl(40, 100%, 55%)" />
<g stroke="hsl(40, 100%, 40%)"><line x1="4.067464251194481" x2="4.247290126681179" y1="94" y2="94" />
<line x1="4.067464251194481" x2="4.067464251194481" y1="88" y2="100" />
<line x1="4.247290126681179" x2="4.247290126681179" y1="88" y2="100" />
</g>
</g>
<text fill="hsl(80, 100%, 40%)" y="132">Basic Logging.1_000_000 1.657 s</text>
<g>
<title>1.657 s ± 105 ms</title>
<rect y="138" rx="5" height="22" width="42.227447775571946" fill="hsl(80, 100%, 80%)" stroke="hsl(80, 100%, 55%)" />
<g stroke="hsl(80, 100%, 40%)"><line x1="39.56372735528587" x2="44.89116819585802" y1="149" y2="149" />
<line x1="39.56372735528587" x2="39.56372735528587" y1="143" y2="155" />
<line x1="44.89116819585802" x2="44.89116819585802" y1="143" y2="155" />
</g>
</g>
<text fill="hsl(120, 100%, 40%)" y="187">Command Logging.10_000 892  μs</text>
<g>
<title>892  μs ±  49 μs</title>
<rect y="193" rx="5" height="22" width="0.022741318964554308" fill="hsl(120, 100%, 80%)" stroke="hsl(120, 100%, 55%)" />
<g stroke="hsl(120, 100%, 40%)"><line x1="0.021495815850950614" x2="0.023986822078158002" y1="204" y2="204" />
<line x1="0.021495815850950614" x2="0.021495815850950614" y1="198" y2="210" />
<line x1="0.023986822078158002" x2="0.023986822078158002" y1="198" y2="210" />
</g>
</g>
<text fill="hsl(160, 100%, 40%)" y="242">Command Logging.100_000 182  ms</text>
<g>
<title>182  ms ±  11 ms</title>
<rect y="248" rx="5" height="22" width="4.630630480075723" fill="hsl(160, 100%, 80%)" stroke="hsl(160, 100%, 55%)" />
<g stroke="hsl(160, 100%, 40%)"><line x1="4.36297902960391" x2="4.898281930547537" y1="259" y2="259" />
<line x1="4.36297902960391" x2="4.36297902960391" y1="253" y2="265" />
<line x1="4.898281930547537" x2="4.898281930547537" y1="253" y2="265" />
</g>
</g>
<text fill="hsl(200, 100%, 40%)" y="297">Command Logging.1_000_000 2.264 s</text>
<g>
<title>2.264 s ±  46 ms</title>
<rect y="303" rx="5" height="22" width="57.69497350884025" fill="hsl(200, 100%, 80%)" stroke="hsl(200, 100%, 55%)" />
<g stroke="hsl(200, 100%, 40%)"><line x1="56.52720042765618" x2="58.862746590024315" y1="314" y2="314" />
<line x1="56.52720042765618" x2="56.52720042765618" y1="308" y2="320" />
<line x1="58.862746590024315" x2="58.862746590024315" y1="308" y2="320" />
</g>
</g>
<text fill="hsl(240, 100%, 40%)" y="352">File Logging.10_000 10.0 ms</text>
<g>
<title>10.0 ms ± 483 μs</title>
<rect y="358" rx="5" height="22" width="0.2557465779547845" fill="hsl(240, 100%, 80%)" stroke="hsl(240, 100%, 55%)" />
<g stroke="hsl(240, 100%, 40%)"><line x1="0.24343728836189232" x2="0.2680558675476767" y1="369" y2="369" />
<line x1="0.24343728836189232" x2="0.24343728836189232" y1="363" y2="375" />
<line x1="0.2680558675476767" x2="0.2680558675476767" y1="363" y2="375" />
</g>
</g>
<text fill="hsl(280, 100%, 40%)" y="407">File Logging.100_000 2.621 s</text>
<g>
<title>2.621 s ±  16 ms</title>
<rect y="413" rx="5" height="22" width="66.80611821495977" fill="hsl(280, 100%, 80%)" stroke="hsl(280, 100%, 55%)" />
<g stroke="hsl(280, 100%, 40%)"><line x1="66.39406940807889" x2="67.21816702184064" y1="424" y2="424" />
<line x1="66.39406940807889" x2="66.39406940807889" y1="418" y2="430" />
<line x1="67.21816702184064" x2="67.21816702184064" y1="418" y2="430" />
</g>
</g>
<g fill="hsl(320, 100%, 40%)">
<text y="462">File Logging.1_000_000</text>
<text y="462" x="921.9403916169402" text-anchor="end">36.173 s</text>
</g>
<g>
<title>36.173 s ± 709 ms</title>
<rect y="468" rx="5" height="22" width="921.9403916169402" fill="hsl(320, 100%, 80%)" stroke="hsl(320, 100%, 55%)" />
<g stroke="hsl(320, 100%, 40%)"><line x1="903.8807832338805" x2="940.0" y1="479" y2="479" />
<line x1="903.8807832338805" x2="903.8807832338805" y1="473" y2="485" />
<line x1="940.0" x2="940.0" y1="473" y2="485" />
</g>
</g>
</g>
</svg>
